<?xml version="1.0" encoding="UTF-8"?>
<svg version="1.1" xmlns="http://www.w3.org/2000/svg" width="1024" height="1024">
<path d="M0 0 C7.21959369 3.98066638 13.10852733 10.93420246 18.82617188 16.81103516 C21.66081232 19.71728238 24.52885608 22.4962446 27.6171875 25.1328125 C33.0930392 29.8587192 38.17304969 34.98701063 43.28466797 40.09936523 C45.01903314 41.83150876 46.76129591 43.5554531 48.50390625 45.27929688 C49.60725787 46.37972022 50.71014039 47.48061416 51.8125 48.58203125 C52.33424805 49.09659378 52.85599609 49.61115631 53.39355469 50.14131165 C57 53.77113122 57 53.77113122 57 56 C57.66 56 58.32 56 59 56 C60.375 57.36328125 60.375 57.36328125 62 59.3125 C64.88858397 62.71647448 67.84793678 66.03082398 70.875 69.3125 C77.88562299 77.00397257 84.39602694 85.05704819 90.58984375 93.41796875 C91.05519531 93.94003906 91.52054688 94.46210938 92 95 C92.66 95 93.32 95 94 95 C94.11609619 95.5882959 94.23219238 96.1765918 94.35180664 96.78271484 C95.04035154 99.13803115 95.90297949 100.52507468 97.37109375 102.4765625 C98.10162964 103.46873779 98.10162964 103.46873779 98.84692383 104.48095703 C99.37181396 105.18849121 99.8967041 105.89602539 100.4375 106.625 C106.74995285 115.35834416 112.07193475 124.425599 117 134 C117.50055908 134.97018066 117.50055908 134.97018066 118.01123047 135.95996094 C127.53065137 154.68685038 134.35781248 175.91484313 135 197 C135.0515625 197.97453125 135.103125 198.9490625 135.15625 199.953125 C136.08715457 230.20752341 125.44635513 255.98570459 106.29345703 278.76928711 C105 280 105 280 103 280 C103 280.66 103 281.32 103 282 C101.01964572 283.78506511 99.04074554 285.43219988 96.9375 287.0625 C96.3077124 287.55129639 95.6779248 288.04009277 95.02905273 288.54370117 C84.78500548 296.34295911 69.37754826 308 56 308 C55.67 308.99 55.34 309.98 55 311 C55 310.34 55 309.68 55 309 C50.73642889 309.51287128 47.54879899 310.54747447 44 313 C40.55875869 318.1498914 39.18796943 324.55114316 37.5 330.4375 C37.00134085 332.04484899 36.49876523 333.65098843 35.9921875 335.25585938 C32.38428676 346.84995035 28.68366269 358.81837388 28 371 C27.94714844 371.92296875 27.89429688 372.8459375 27.83984375 373.796875 C27.46996766 386.21184643 30.19418614 395.33162752 38 405 C38.65935547 405.90298828 38.65935547 405.90298828 39.33203125 406.82421875 C44.10812056 413.0143768 50.75999648 417.39869177 57 422 C56.67 423.65 56.34 425.3 56 427 C51.52791481 428.10268128 47.1267113 428.17851081 42.5480957 428.22119141 C41.70821106 428.2326973 40.86832642 428.24420319 40.00299072 428.25605774 C37.227291 428.2927127 34.45156921 428.32241038 31.67578125 428.3515625 C29.73064393 428.37471162 27.78550947 428.39810217 25.84037781 428.42172241 C21.75583726 428.47017478 17.67127619 428.51507852 13.58666992 428.55761719 C8.40160038 428.61197923 3.21670282 428.67593712 -1.9682188 428.74279213 C-5.99300227 428.79342213 -10.01783549 428.83830928 -14.04270363 428.88163376 C-15.95090686 428.90292408 -17.85909095 428.9260208 -19.76724815 428.9510994 C-30.75182151 429.09231287 -41.64308622 428.94048735 -52.60725403 428.22177124 C-54.40252411 428.10442108 -56.20089863 428 -58 428 C-58.33 428.66 -58.66 429.32 -59 430 C-59 429.34 -59 428.68 -59 428 C-59.96824707 428.05124023 -60.93649414 428.10248047 -61.93408203 428.15527344 C-65.54508042 428.34069711 -69.15686242 428.49795763 -72.76953125 428.64697266 C-74.32945331 428.71520308 -75.88906627 428.79094933 -77.44824219 428.87451172 C-79.69686249 428.99369147 -81.945229 429.08530082 -84.1953125 429.171875 C-85.23161301 429.23565338 -85.23161301 429.23565338 -86.28884888 429.30072021 C-91.35654174 429.45671107 -94.11695993 428.19369055 -98 425 C-98.86328125 423.05859375 -98.86328125 423.05859375 -99 421 C-99.05542969 420.22785156 -99.11085938 419.45570313 -99.16796875 418.66015625 C-99.2163802 412.22143364 -98.51675918 406.17838433 -97.33984375 399.84765625 C-97.01945431 397.16301366 -97.12950246 395.52626908 -98 393 C-97.01 393.33 -96.02 393.66 -95 394 C-94.9175 393.195625 -94.835 392.39125 -94.75 391.5625 C-93.79211641 387.01255294 -92.01120048 383.17346129 -90 379 C-89.59773193 378.16130371 -89.19546387 377.32260742 -88.78100586 376.45849609 C-81.80176345 362.20643458 -72.4678155 349.73297046 -62.32421875 337.58203125 C-61.69153076 336.82253174 -61.05884277 336.06303223 -60.40698242 335.28051758 C-59.1598621 333.78911432 -57.9063543 332.30302321 -56.64575195 330.82299805 C-53.70649128 327.32022438 -51.48099813 324.38665206 -50 320 C-48.68733482 318.64631404 -47.35432675 317.31200404 -46 316 C-45.30151147 314.68305809 -44.62932361 313.35136006 -44 312 C-44.64582031 311.93683594 -45.29164063 311.87367188 -45.95703125 311.80859375 C-65.56138317 309.26083256 -85.22347099 300.01327933 -100 287 C-101.22783203 285.98679687 -101.22783203 285.98679687 -102.48046875 284.953125 C-109.42834937 279.05011945 -114.72138864 272.36924417 -120 265 C-120.49242187 264.33613281 -120.98484375 263.67226563 -121.4921875 262.98828125 C-138.21532895 238.66868013 -139.43397968 205.62988885 -134.49609375 177.61962891 C-126.37460103 134.73399069 -100.40886798 97.19486251 -71.359375 65.57421875 C-67.39323519 61.24692383 -63.465128 56.896048 -59.875 52.25 C-58 50 -58 50 -55.4375 48 C-52.89472135 46.14239 -52.89472135 46.14239 -51.5 43.5 C-50 41 -50 41 -47.82421875 39.265625 C-43.73093702 35.98194118 -40.19184326 32.19817604 -36.55273438 28.42578125 C-35.07079875 26.91472088 -33.53899115 25.45290843 -32 24 C-31.34 24 -30.68 24 -30 24 C-29.74863281 23.41089844 -29.49726563 22.82179688 -29.23828125 22.21484375 C-27.84544599 19.72355798 -26.3791428 18.37699586 -24.1875 16.5625 C-21.88590466 14.61563083 -19.69654625 12.69654625 -17.5625 10.5625 C-15.24773995 8.24773995 -12.93582353 5.94215735 -10.5625 3.6875 C-9.84191406 2.99011719 -9.12132812 2.29273438 -8.37890625 1.57421875 C-5.30807534 -0.45787461 -3.62094597 -0.51458033 0 0 Z " fill="#1E483D" transform="translate(514,296)"/>
<path d="M0 0 C1.24040039 0.01353516 1.24040039 0.01353516 2.50585938 0.02734375 C4.52486708 0.05068488 6.54372356 0.08654712 8.5625 0.125 C18.55122692 26.56102828 1.11324072 62.40956424 -8.37988281 86.84594727 C-12.27557042 96.96749464 -14.99628577 106.2092803 -14.875 117.125 C-14.86742676 118.08760742 -14.85985352 119.05021484 -14.85205078 120.04199219 C-14.68912487 127.05613101 -13.83306236 132.8927722 -10.4375 139.125 C-10.00179687 139.97964844 -9.56609375 140.83429688 -9.1171875 141.71484375 C-4.9333869 149.31655795 0.70245025 156.17944143 8.5625 160.125 C12.138124 160.62694005 12.138124 160.62694005 16.05078125 160.63671875 C16.75397995 160.65466995 17.45717865 160.67262115 18.1816864 160.69111633 C20.41273117 160.7450048 22.6435647 160.77904412 24.875 160.8125 C26.39390947 160.84569224 27.91279114 160.88018367 29.43164062 160.91601562 C33.14172416 161.00071695 36.8518817 161.06763074 40.5625 161.125 C40.5625 161.455 40.5625 161.785 40.5625 162.125 C29.14839985 162.27936211 17.73423737 162.42753657 6.31995678 162.5679636 C1.01900544 162.63337107 -4.28190204 162.70085392 -9.58276367 162.77319336 C-14.70500566 162.84301697 -19.82729089 162.90724053 -24.94965172 162.96769524 C-26.89713751 162.99164203 -28.8446002 163.01755572 -30.79203224 163.04553413 C-57.52630512 163.42623907 -57.52630512 163.42623907 -62.375 160.125 C-70.43352113 148.40351472 -72.27498628 134.63196853 -69.85546875 120.796875 C-65.65788305 105.53989685 -57.13255992 93.24317807 -47 81.37890625 C-30.21372675 61.61779291 -16.15240196 39.29053563 -16.375 12.75 C-16.37951172 11.72777344 -16.38402344 10.70554687 -16.38867188 9.65234375 C-16.400397 7.14316806 -16.41680824 4.6341151 -16.4375 2.125 C-10.81492839 0.2080427 -5.91380615 -0.12389924 0 0 Z " fill="#FCAA2C" transform="translate(524.4375,561.875)"/>
<path d="M0 0 C0.66 0 1.32 0 2 0 C10.04398546 15.01543953 8.68126681 34.63112952 9.5625 51.25 C9.75113588 54.72826157 9.94138629 58.20642623 10.13328552 61.68450928 C10.25125259 63.8304266 10.36718474 65.97645724 10.48060608 68.12261963 C10.85814328 75.09436205 11.38547276 82.04521397 12 89 C17.61614087 84.50274213 23.1042987 79.96060386 28.375 75.0625 C33.75824195 70.12213469 39.40701633 65.64060653 45.26904297 61.29394531 C47.09185772 59.93133344 48.89106746 58.54057365 50.69140625 57.1484375 C51.91838341 56.22278086 53.14622617 55.29827029 54.375 54.375 C54.93356689 53.93671875 55.49213379 53.4984375 56.06762695 53.046875 C60.13918659 50.04658741 63.00695333 49.55757814 68 50 C67.67563085 56.0239985 64.97167637 59.01739819 61.1875 63.375 C59.99207813 64.79459439 58.79943685 66.21653425 57.609375 67.640625 C57.00416016 68.36314453 56.39894531 69.08566406 55.77539062 69.83007812 C53.04057408 73.17263168 50.49170691 76.64376722 47.9375 80.125 C38.56043423 92.79545918 28.09682517 106.06716358 16.19140625 116.44921875 C13.76768627 118.81580286 13.76768627 118.81580286 13.5546875 121.890625 C14.47062517 131.49680052 16.2189154 140.82747421 18.27099609 150.25488281 C19.42419292 155.62190957 20.30427106 160.50751724 20 166 C19.20078125 165.97679687 18.4015625 165.95359375 17.578125 165.9296875 C9.82163126 165.80223338 2.60123527 166.46605703 -5 168 C-5.24234375 167.03320312 -5.4846875 166.06640625 -5.734375 165.0703125 C-9.49184967 150.35669321 -13.89144933 139.73619702 -25 129 C-33.27819126 120.82726341 -40.81838479 112.14023755 -48 103 C-49.45651825 101.18520218 -50.9176492 99.37416901 -52.37866211 97.56298828 C-54.43739754 95.00351422 -56.47999985 92.43143902 -58.52050781 89.85742188 C-59.48555201 88.64586144 -60.45602274 87.43859777 -61.43261719 86.23632812 C-62.73998307 84.62654665 -64.02801635 83.00305922 -65.3125 81.375 C-66.05113281 80.45460938 -66.78976562 79.53421875 -67.55078125 78.5859375 C-69 76 -69 76 -68.73046875 73.1640625 C-68.36888672 72.09285156 -68.36888672 72.09285156 -68 71 C-47.4545773 73.70961372 -27.85968741 95.7500604 -13 109 C-12.04056916 97.0503043 -11.1176562 85.1046728 -10.5625 73.12890625 C-9.83701812 57.60798766 -8.90736884 42.18360297 -7.0625 26.75 C-6.94325165 25.71839752 -6.94325165 25.71839752 -6.82159424 24.66595459 C-4.76754954 7.15132431 -4.76754954 7.15132431 0 0 Z " fill="#3F6959" transform="translate(513,395)"/>
<path d="M0 0 C7.21959369 3.98066638 13.10852733 10.93420246 18.82617188 16.81103516 C21.66081232 19.71728238 24.52885608 22.4962446 27.6171875 25.1328125 C33.0930392 29.8587192 38.17304969 34.98701063 43.28466797 40.09936523 C45.01903314 41.83150876 46.76129591 43.5554531 48.50390625 45.27929688 C49.60725787 46.37972022 50.71014039 47.48061416 51.8125 48.58203125 C52.33424805 49.09659378 52.85599609 49.61115631 53.39355469 50.14131165 C57 53.77113122 57 53.77113122 57 56 C57.66 56 58.32 56 59 56 C60.375 57.36328125 60.375 57.36328125 62 59.3125 C64.88858397 62.71647448 67.84793678 66.03082398 70.875 69.3125 C75.79689481 74.7123937 80.43376362 80.29851148 85 86 C85.71027344 86.85335937 86.42054688 87.70671875 87.15234375 88.5859375 C87.80332031 89.38257813 88.45429687 90.17921875 89.125 91 C89.99511719 92.051875 89.99511719 92.051875 90.8828125 93.125 C91.25148438 93.74375 91.62015625 94.3625 92 95 C91.67 95.99 91.34 96.98 91 98 C90.07380859 96.76636719 90.07380859 96.76636719 89.12890625 95.5078125 C84.43104903 89.2982269 79.63139881 83.3252579 74.33665466 77.60552979 C72.089998 75.10035392 69.99376826 72.52513555 67.90258789 69.88964844 C62.98998449 63.85984902 57.63737825 58.36347294 52.12109375 52.890625 C51.0990033 51.86973174 50.07728784 50.84846292 49.05592346 49.82684326 C46.93367892 47.70614712 44.80816998 45.58880172 42.67993164 43.47412109 C39.97305059 40.78428178 37.27285231 38.08785343 34.57485867 35.38910294 C32.47230658 33.2868246 30.36714484 31.18717576 28.26112556 29.08837128 C27.26514758 28.09553929 26.26974231 27.10213238 25.27496147 26.10810089 C20.18624064 21.02741676 15.06732964 16.04762112 9.59536743 11.37908936 C6.98387924 9.12163098 4.57388611 6.64613382 2.15234375 4.1875 C-1.23166234 2.32046216 -3.30049891 3.0559747 -7 4 C-9.72343748 5.84060398 -11.96376775 8.08505573 -14.27734375 10.41015625 C-14.9620726 11.0753981 -15.64680145 11.74063995 -16.35227966 12.42604065 C-18.58345977 14.60238439 -20.79220515 16.79995619 -23 19 C-24.5176694 20.49406112 -26.03606713 21.98738275 -27.55517578 23.47998047 C-31.45689045 27.32553311 -35.33489061 31.19403474 -39.20336914 35.07299805 C-41.58820255 37.46326107 -43.97843105 39.84803758 -46.36914062 42.23242188 C-47.91438372 43.77832482 -49.45931709 45.32453743 -51.00390625 46.87109375 C-51.70504044 47.5702037 -52.40617462 48.26931366 -53.1285553 48.98960876 C-57.06175189 52.94134936 -60.80870743 56.98895901 -64.41416931 61.24281311 C-66.72738254 63.80597952 -69.28138037 65.87815053 -72 68 C-70.4585799 64.43082939 -68.30524541 61.91782231 -65.6875 59.0625 C-64.88054687 58.17949219 -64.07359375 57.29648437 -63.2421875 56.38671875 C-61.63774818 54.67885739 -59.98883506 53.01235052 -58.3125 51.375 C-55.76073055 48.75426381 -53.71332034 45.96087151 -51.625 42.96484375 C-49.65995898 40.58884463 -47.41273472 38.92259405 -45 37 C-42.11398242 34.21207684 -39.33842137 31.31349674 -36.55273438 28.42578125 C-35.07079875 26.91472088 -33.53899115 25.45290843 -32 24 C-31.34 24 -30.68 24 -30 24 C-29.62294922 23.11634766 -29.62294922 23.11634766 -29.23828125 22.21484375 C-27.84544599 19.72355798 -26.3791428 18.37699586 -24.1875 16.5625 C-21.88590466 14.61563083 -19.69654625 12.69654625 -17.5625 10.5625 C-15.24773995 8.24773995 -12.93582353 5.94215735 -10.5625 3.6875 C-9.84191406 2.99011719 -9.12132812 2.29273438 -8.37890625 1.57421875 C-5.30807534 -0.45787461 -3.62094597 -0.51458033 0 0 Z " fill="#182F27" transform="translate(514,296)"/>
<path d="M0 0 C8.44381617 -0.02363368 16.88761752 -0.0411654 25.33145905 -0.05181217 C29.25630395 -0.05693343 33.18112555 -0.06382288 37.10595703 -0.07543945 C58.42603577 -0.1368896 79.69463725 0.17964042 101 1 C101 1.33 101 1.66 101 2 C89.58589985 2.15436211 78.17173737 2.30253657 66.75745678 2.4429636 C61.45650544 2.50837107 56.15559796 2.57585392 50.85473633 2.64819336 C45.73249434 2.71801697 40.61020911 2.78224053 35.48784828 2.84269524 C33.54036249 2.86664203 31.5928998 2.89255572 29.64546776 2.92053413 C6.33455795 3.25248924 6.33455795 3.25248924 1 2 C0.67 1.34 0.34 0.68 0 0 Z " fill="#C89841" transform="translate(464,722)"/>
<path d="M0 0 C2.62827948 3.21935543 5.03684887 6.50433239 7.375 9.9375 C21.4423061 29.19569396 40.07140872 40.41026933 62 49 C58.9847479 50.34266951 57.76346638 49.92061727 54.56640625 48.84765625 C53.22498141 48.26807186 51.89061693 47.67196213 50.5625 47.0625 C49.85311279 46.7418457 49.14372559 46.42119141 48.4128418 46.09082031 C28.84911859 37.03138915 10.08070111 22.4807118 0 3 C0 2.01 0 1.02 0 0 Z " fill="#142820" transform="translate(391,553)"/>
<path d="M0 0 C0.67095703 0.58007812 0.67095703 0.58007812 1.35546875 1.171875 C1.96003906 1.69265625 2.56460938 2.2134375 3.1875 2.75 C4.07501953 3.51570312 4.07501953 3.51570312 4.98046875 4.296875 C5.64691406 4.85890625 6.31335938 5.4209375 7 6 C8.04124023 7.02383789 8.04124023 7.02383789 9.10351562 8.06835938 C12.83884232 10.55941676 16.01912721 10.60236733 20.36328125 10.609375 C21.15526413 10.62591125 21.94724701 10.64244751 22.76322937 10.65948486 C25.27973257 10.70786572 27.79563196 10.72931275 30.3125 10.75 C32.02411876 10.77816813 33.73570951 10.80809675 35.44726562 10.83984375 C39.63146067 10.91362147 43.8153225 10.96325618 48 11 C48 10.01 48 9.02 48 8 C47.071875 7.5359375 47.071875 7.5359375 46.125 7.0625 C44.75 6.375 43.375 5.6875 42 5 C42 4.34 42 3.68 42 3 C45.45925163 4.2491742 48.14693203 5.67527795 51 8 C50.67 9.65 50.34 11.3 50 13 C44.87724333 13.14918422 39.75577169 13.25760412 34.63134766 13.32958984 C32.89121453 13.35961998 31.15123097 13.40045827 29.41162109 13.45263672 C13.08527574 13.92979638 13.08527574 13.92979638 8 10.1484375 C6.375 8.56787109 6.375 8.56787109 5 7 C4.484375 6.52771973 3.96875 6.05543945 3.4375 5.56884766 C2 4.25 2 4.25 0 2 C0 1.34 0 0.68 0 0 Z " fill="#0F2A29" transform="translate(520,710)"/>
<path d="M0 0 C9.64284189 9.16749052 15.76263152 21.0743402 21.875 32.75 C22.42220703 33.7905957 22.96941406 34.83119141 23.53320312 35.90332031 C32.36622053 53.08468278 32.36622053 53.08468278 32 61 C30.42117189 58.63175784 29.43144949 56.80832797 28.40625 54.21875 C22.09684024 38.5912923 14.92815333 23.63390987 5.22314453 9.80566406 C3.00783816 6.63834771 1.26152328 3.66115994 0 0 Z " fill="#142820" transform="translate(609,397)"/>
<path d="M0 0 C0.99 0.33 1.98 0.66 3 1 C2.39414062 1.69222656 1.78828125 2.38445313 1.1640625 3.09765625 C-11.21097444 17.54789169 -22.36803524 34.05044322 -29 52 C-30.52694634 47.35782756 -28.68107359 44.30801411 -26.625 40.125 C-26.26067871 39.3712207 -25.89635742 38.61744141 -25.52099609 37.84082031 C-19.42596893 25.51572491 -11.49214888 14.76080959 -3 4 C-1.99509196 2.67036185 -0.99281166 1.33869443 0 0 Z " fill="#182F25" transform="translate(451,634)"/>
<path d="M0 0 C3.27679215 1.09226405 3.92308502 1.79929154 6.0625 4.375 C8.92860054 7.76001558 11.86737252 11.05228794 14.875 14.3125 C19.79689481 19.7123937 24.43376362 25.29851148 29 31 C30.06541016 32.28003906 30.06541016 32.28003906 31.15234375 33.5859375 C31.80332031 34.38257813 32.45429687 35.17921875 33.125 36 C33.99511719 37.051875 33.99511719 37.051875 34.8828125 38.125 C35.25148438 38.74375 35.62015625 39.3625 36 40 C35.67 40.99 35.34 41.98 35 43 C34.38253906 42.17757812 33.76507812 41.35515625 33.12890625 40.5078125 C28.39499788 34.25057481 23.54595703 28.24660683 18.22265625 22.47265625 C15.84175645 19.82395752 13.60659749 17.08783697 11.375 14.3125 C8.20436074 10.3784555 4.91864147 6.77488517 1.21484375 3.33984375 C0 2 0 2 0 0 Z " fill="#11251D" transform="translate(570,351)"/>
<path d="M0 0 C0 3.76158608 -0.85512805 4.27508001 -3.39453125 6.94140625 C-4.10287109 7.68970703 -4.81121094 8.43800781 -5.54101562 9.20898438 C-6.29060547 9.98564453 -7.04019531 10.76230469 -7.8125 11.5625 C-8.55048828 12.34302734 -9.28847656 13.12355469 -10.04882812 13.92773438 C-15.5559084 19.70393893 -15.5559084 19.70393893 -19 22 C-17.4585799 18.43082939 -15.30524541 15.91782231 -12.6875 13.0625 C-11.88441406 12.1859375 -11.08132813 11.309375 -10.25390625 10.40625 C-7.88519561 7.87743587 -5.48602635 5.41290793 -3 3 C-2.401875 2.401875 -1.80375 1.80375 -1.1875 1.1875 C-0.795625 0.795625 -0.40375 0.40375 0 0 Z " fill="#12261E" transform="translate(461,342)"/>
<path d="M0 0 C3.07901729 2.90796077 5.47082694 5.95675948 7.875 9.4375 C10.91617357 13.69742103 13.77361952 16.93587415 18 20 C17.67 20.99 17.34 21.98 17 23 C10.58710945 16.93549586 4.3150538 10.7871004 0 3 C0 2.01 0 1.02 0 0 Z " fill="#15291F" transform="translate(543,690)"/>
<path d="M0 0 C0 3.62264954 -0.7274315 4.25262261 -2.9921875 6.9765625 C-3.61480469 7.729375 -4.23742187 8.4821875 -4.87890625 9.2578125 C-5.86697266 10.42957031 -5.86697266 10.42957031 -6.875 11.625 C-7.52597656 12.41390625 -8.17695313 13.2028125 -8.84765625 14.015625 C-13.71651786 19.85825893 -13.71651786 19.85825893 -16 21 C-14.48802117 16.22250478 -11.80124808 13.07401346 -8.5625 9.375 C-7.82676758 8.51648438 -7.82676758 8.51648438 -7.07617188 7.640625 C-4.80350264 5.00297919 -2.5179235 2.40696416 0 0 Z " fill="#142A21" transform="translate(439,366)"/>
<path d="M0 0 C1.26029888 3.78089663 0.48090989 4.93131443 -0.875 8.625 C-3.51463284 16.68043125 -3.7982151 24.57548028 -4 33 C-4.33 33 -4.66 33 -5 33 C-5 25.41 -5 17.82 -5 10 C-4.34 10 -3.68 10 -3 10 C-2.87625 9.0925 -2.7525 8.185 -2.625 7.25 C-2.07890323 4.41029677 -1.42736197 2.47409409 0 0 Z " fill="#0A273D" transform="translate(458,670)"/>
<path d="M0 0 C2.99220268 1.36370299 5.29026529 2.94908083 7.75 5.125 C8.67039062 5.93324219 8.67039062 5.93324219 9.609375 6.7578125 C10.06828125 7.16773438 10.5271875 7.57765625 11 8 C12.96822886 6.03177114 12.66248381 2.65191291 13 0 C13.33 0 13.66 0 14 0 C14 4.29 14 8.58 14 13 C8.52077345 9.12675364 4.12995964 5.28759984 0 0 Z " fill="#154035" transform="translate(487,492)"/>
<path d="M0 0 C0 3.52032428 -0.70351351 4.4385343 -3 7 C-3.66 7 -4.32 7 -5 7 C-5 7.66 -5 8.32 -5 9 C-6.96875 10.7265625 -6.96875 10.7265625 -9.5 12.625 C-10.75296875 13.57246094 -10.75296875 13.57246094 -12.03125 14.5390625 C-12.6809375 15.02117188 -13.330625 15.50328125 -14 16 C-14.66 15.67 -15.32 15.34 -16 15 C-15.18015625 14.25234375 -14.3603125 13.5046875 -13.515625 12.734375 C-12.42703861 11.73963227 -11.33849945 10.74483787 -10.25 9.75 C-9.71117187 9.25886719 -9.17234375 8.76773438 -8.6171875 8.26171875 C-5.6756284 5.57126836 -2.7926232 2.8468489 0 0 Z " fill="#12231C" transform="translate(622,569)"/>
<path d="M0 0 C1.32435978 3.97307934 0.18129186 6.80974568 -0.9375 10.6875 C-1.13279297 11.38939453 -1.32808594 12.09128906 -1.52929688 12.81445312 C-2.01199136 14.54508944 -2.50500846 16.27284066 -3 18 C-3.33 18 -3.66 18 -4 18 C-4.39873011 11.88613837 -3.12115707 6.73701549 -1 1 C-0.67 0.67 -0.34 0.34 0 0 Z " fill="#142A21" transform="translate(385,455)"/>
<path d="M0 0 C3.21043882 1.38188453 5.04936365 2.92421903 7.25 5.625 C8.03117187 6.57246094 8.03117187 6.57246094 8.828125 7.5390625 C9.40820312 8.26222656 9.40820312 8.26222656 10 9 C7 9 7 9 5.17578125 7.5390625 C4.56089844 6.90742187 3.94601562 6.27578125 3.3125 5.625 C2.68988281 4.99851562 2.06726563 4.37203125 1.42578125 3.7265625 C0 2 0 2 0 0 Z " fill="#183227" transform="translate(403,571)"/>
<path d="M0 0 C0.66 0.33 1.32 0.66 2 1 C-1.63 4.63 -5.26 8.26 -9 12 C-9.33 11.01 -9.66 10.02 -10 9 C-6.7 6.03 -3.4 3.06 0 0 Z " fill="#10221A" transform="translate(495,308)"/>
<path d="M0 0 C0.66 0.33 1.32 0.66 2 1 C0.87970983 2.48273699 -0.24638618 3.96108886 -1.375 5.4375 C-2.00148438 6.26121094 -2.62796875 7.08492187 -3.2734375 7.93359375 C-5 10 -5 10 -7 11 C-5.5140084 6.40693504 -3.14985318 3.56430755 0 0 Z " fill="#12261E" transform="translate(465,617)"/>
<path d="M0 0 C0.66 0.33 1.32 0.66 2 1 C-0.31 3.97 -2.62 6.94 -5 10 C-5.33 9.34 -5.66 8.68 -6 8 C-4.02 5.36 -2.04 2.72 0 0 Z " fill="#132820" transform="translate(421,388)"/>
<path d="M0 0 C1.7074998 1.28062485 3.37373596 2.61767557 5 4 C5 4.66 5 5.32 5 6 C3.35 6 1.7 6 0 6 C-1 3 -1 3 0 0 Z " fill="#3C4B3F" transform="translate(459,718)"/>
<path d="M0 0 C0.99 0.33 1.98 0.66 3 1 C2.67 1.66 2.34 2.32 2 3 C1.34 2.67 0.68 2.34 0 2 C0 1.34 0 0.68 0 0 Z " fill="#395C4F" transform="translate(392,562)"/>
<path d="M0 0 C3 1 3 1 3 1 Z " fill="#EDB545" transform="translate(487,725)"/>
<path d="M0 0 C0.33 0.66 0.66 1.32 1 2 C0.34 1.67 -0.32 1.34 -1 1 C-0.67 0.67 -0.34 0.34 0 0 Z " fill="#35594D" transform="translate(606,387)"/>
<path d="M0 0 C0.99 0.495 0.99 0.495 2 1 C1.01 1.495 1.01 1.495 0 2 C0 1.34 0 0.68 0 0 Z " fill="#315A50" transform="translate(441,360)"/>
<path d="M0 0 C2 1 2 1 2 1 Z " fill="#EEB647" transform="translate(485,726)"/>
<path d="M0 0 C2 1 2 1 2 1 Z " fill="#E8B247" transform="translate(477,726)"/>
<path d="M0 0 C2 1 2 1 2 1 Z " fill="#988B51" transform="translate(536,725)"/>
<path d="M0 0 C2 1 2 1 2 1 Z " fill="#DEAA46" transform="translate(520,725)"/>
<path d="M0 0 C2 1 2 1 2 1 Z " fill="#F0B745" transform="translate(496,725)"/>
<path d="M0 0 C2 1 2 1 2 1 Z " fill="#6F7451" transform="translate(432,725)"/>
<path d="" fill="#355C4E" transform="translate(0,0)"/>
<path d="M0 0 C2 1 2 1 2 1 Z " fill="#31584A" transform="translate(447,353)"/>
<path d="M0 0 C2 1 2 1 2 1 Z " fill="#355C4F" transform="translate(496,304)"/>
<path d="" fill="#3C403C" transform="translate(0,0)"/>
<path d="" fill="#3B3E3B" transform="translate(0,0)"/>
<path d="" fill="#3B3F3B" transform="translate(0,0)"/>
<path d="" fill="#484943" transform="translate(0,0)"/>
<path d="" fill="#494B46" transform="translate(0,0)"/>
<path d="" fill="#3F423E" transform="translate(0,0)"/>
<path d="" fill="#484945" transform="translate(0,0)"/>
<path d="" fill="#585850" transform="translate(0,0)"/>
<path d="" fill="#6C6A57" transform="translate(0,0)"/>
<path d="" fill="#757952" transform="translate(0,0)"/>
<path d="" fill="#868051" transform="translate(0,0)"/>
<path d="" fill="#E5AD45" transform="translate(0,0)"/>
<path d="" fill="#ECB445" transform="translate(0,0)"/>
<path d="" fill="#EAB245" transform="translate(0,0)"/>
<path d="" fill="#BD9B4D" transform="translate(0,0)"/>
<path d="" fill="#677156" transform="translate(0,0)"/>
<path d="" fill="#AC934E" transform="translate(0,0)"/>
<path d="" fill="#AF914E" transform="translate(0,0)"/>
<path d="" fill="#888352" transform="translate(0,0)"/>
<path d="" fill="#7B7953" transform="translate(0,0)"/>
<path d="" fill="#928752" transform="translate(0,0)"/>
<path d="" fill="#C4A24B" transform="translate(0,0)"/>
<path d="" fill="#E5AE45" transform="translate(0,0)"/>
<path d="" fill="#E5B246" transform="translate(0,0)"/>
<path d="" fill="#EFB543" transform="translate(0,0)"/>
<path d="" fill="#EFB745" transform="translate(0,0)"/>
<path d="" fill="#EDB648" transform="translate(0,0)"/>
<path d="" fill="#E6B444" transform="translate(0,0)"/>
<path d="" fill="#DDAC49" transform="translate(0,0)"/>
<path d="" fill="#D8A748" transform="translate(0,0)"/>
<path d="" fill="#D0A64C" transform="translate(0,0)"/>
<path d="" fill="#7C7A50" transform="translate(0,0)"/>
<path d="" fill="#767452" transform="translate(0,0)"/>
<path d="" fill="#747450" transform="translate(0,0)"/>
<path d="" fill="#6A7152" transform="translate(0,0)"/>
<path d="" fill="#636D52" transform="translate(0,0)"/>
<path d="" fill="#646F52" transform="translate(0,0)"/>
<path d="" fill="#5D6A55" transform="translate(0,0)"/>
<path d="" fill="#445E4E" transform="translate(0,0)"/>
<path d="" fill="#42634F" transform="translate(0,0)"/>
<path d="" fill="#3A5F4B" transform="translate(0,0)"/>
<path d="" fill="#3D5C4C" transform="translate(0,0)"/>
<path d="" fill="#486452" transform="translate(0,0)"/>
<path d="" fill="#3E6051" transform="translate(0,0)"/>
<path d="" fill="#446151" transform="translate(0,0)"/>
<path d="" fill="#3C5E50" transform="translate(0,0)"/>
<path d="" fill="#3B5B4E" transform="translate(0,0)"/>
<path d="" fill="#416152" transform="translate(0,0)"/>
<path d="" fill="#406254" transform="translate(0,0)"/>
<path d="" fill="#406152" transform="translate(0,0)"/>
<path d="" fill="#3D5D4F" transform="translate(0,0)"/>
<path d="" fill="#385E4D" transform="translate(0,0)"/>
<path d="" fill="#365A4E" transform="translate(0,0)"/>
<path d="" fill="#505250" transform="translate(0,0)"/>
<path d="" fill="#385A4C" transform="translate(0,0)"/>
<path d="" fill="#37594B" transform="translate(0,0)"/>
<path d="" fill="#37584D" transform="translate(0,0)"/>
<path d="" fill="#365C4E" transform="translate(0,0)"/>
<path d="" fill="#345B4E" transform="translate(0,0)"/>
<path d="" fill="#375D4F" transform="translate(0,0)"/>
<path d="" fill="#345A4D" transform="translate(0,0)"/>
<path d="" fill="#365A4D" transform="translate(0,0)"/>
<path d="" fill="#3B5D4E" transform="translate(0,0)"/>
<path d="" fill="#37574B" transform="translate(0,0)"/>
<path d="" fill="#375E4E" transform="translate(0,0)"/>
<path d="" fill="#3A5B4F" transform="translate(0,0)"/>
<path d="" fill="#365C4F" transform="translate(0,0)"/>
<path d="" fill="#385B4D" transform="translate(0,0)"/>
<path d="" fill="#375A4F" transform="translate(0,0)"/>
<path d="" fill="#385D4D" transform="translate(0,0)"/>
<path d="" fill="#3C5E51" transform="translate(0,0)"/>
<path d="" fill="#365B4B" transform="translate(0,0)"/>
<path d="" fill="#365C4E" transform="translate(0,0)"/>
<path d="" fill="#3A5C4E" transform="translate(0,0)"/>
<path d="" fill="#395E50" transform="translate(0,0)"/>
<path d="" fill="#385E50" transform="translate(0,0)"/>
<path d="" fill="#39604E" transform="translate(0,0)"/>
<path d="" fill="#3B5D4F" transform="translate(0,0)"/>
<path d="" fill="#3B5D4F" transform="translate(0,0)"/>
<path d="" fill="#385B54" transform="translate(0,0)"/>
<path d="" fill="#3D5D50" transform="translate(0,0)"/>
<path d="" fill="#395C52" transform="translate(0,0)"/>
<path d="" fill="#395D51" transform="translate(0,0)"/>
<path d="" fill="#3A5C53" transform="translate(0,0)"/>
<path d="" fill="#3B5D51" transform="translate(0,0)"/>
<path d="" fill="#33584B" transform="translate(0,0)"/>
<path d="" fill="#365D50" transform="translate(0,0)"/>
<path d="" fill="#3A6351" transform="translate(0,0)"/>
<path d="" fill="#335E4F" transform="translate(0,0)"/>
<path d="" fill="#355C51" transform="translate(0,0)"/>
<path d="" fill="#375D51" transform="translate(0,0)"/>
<path d="" fill="#345C4D" transform="translate(0,0)"/>
<path d="" fill="#434F4A" transform="translate(0,0)"/>
<path d="" fill="#385C4F" transform="translate(0,0)"/>
<path d="" fill="#385F50" transform="translate(0,0)"/>
<path d="" fill="#395B50" transform="translate(0,0)"/>
<path d="" fill="#3B5E52" transform="translate(0,0)"/>
<path d="" fill="#366150" transform="translate(0,0)"/>
<path d="" fill="#434E49" transform="translate(0,0)"/>
<path d="" fill="#385B4F" transform="translate(0,0)"/>
<path d="" fill="#385F53" transform="translate(0,0)"/>
<path d="" fill="#395C4F" transform="translate(0,0)"/>
<path d="" fill="#345B50" transform="translate(0,0)"/>
<path d="" fill="#2F594D" transform="translate(0,0)"/>
<path d="" fill="#365B53" transform="translate(0,0)"/>
<path d="" fill="#365A4F" transform="translate(0,0)"/>
<path d="" fill="#365E53" transform="translate(0,0)"/>
<path d="" fill="#375B4D" transform="translate(0,0)"/>
<path d="" fill="#355F54" transform="translate(0,0)"/>
<path d="" fill="#345E51" transform="translate(0,0)"/>
<path d="" fill="#345B4F" transform="translate(0,0)"/>
<path d="" fill="#395E50" transform="translate(0,0)"/>
<path d="" fill="#335A50" transform="translate(0,0)"/>
<path d="" fill="#365F50" transform="translate(0,0)"/>
<path d="" fill="#345B4D" transform="translate(0,0)"/>
<path d="" fill="#355B4D" transform="translate(0,0)"/>
<path d="" fill="#2F584E" transform="translate(0,0)"/>
<path d="" fill="#345D50" transform="translate(0,0)"/>
<path d="" fill="#305B4C" transform="translate(0,0)"/>
<path d="" fill="#43514D" transform="translate(0,0)"/>
<path d="" fill="#335E52" transform="translate(0,0)"/>
<path d="" fill="#33594F" transform="translate(0,0)"/>
<path d="" fill="#375950" transform="translate(0,0)"/>
<path d="" fill="#335A4E" transform="translate(0,0)"/>
<path d="" fill="#2D5349" transform="translate(0,0)"/>
<path d="" fill="#345B4D" transform="translate(0,0)"/>
<path d="" fill="#3F4C46" transform="translate(0,0)"/>
<path d="" fill="#424F4B" transform="translate(0,0)"/>
<path d="" fill="#34594D" transform="translate(0,0)"/>
<path d="" fill="#4E5A54" transform="translate(0,0)"/>
<path d="" fill="#365C4E" transform="translate(0,0)"/>
<path d="" fill="#30594E" transform="translate(0,0)"/>
<path d="" fill="#365D4D" transform="translate(0,0)"/>
<path d="" fill="#355A4E" transform="translate(0,0)"/>
<path d="" fill="#34594E" transform="translate(0,0)"/>
<path d="" fill="#385C50" transform="translate(0,0)"/>
<path d="" fill="#3A5A4D" transform="translate(0,0)"/>
<path d="" fill="#33594B" transform="translate(0,0)"/>
<path d="" fill="#3B5D50" transform="translate(0,0)"/>
<path d="" fill="#3A5C50" transform="translate(0,0)"/>
<path d="" fill="#555754" transform="translate(0,0)"/>
<path d="" fill="#494B49" transform="translate(0,0)"/>
<path d="" fill="#525653" transform="translate(0,0)"/>
<path d="" fill="#525550" transform="translate(0,0)"/>
<path d="" fill="#545554" transform="translate(0,0)"/>
<path d="" fill="#464946" transform="translate(0,0)"/>
<path d="" fill="#525451" transform="translate(0,0)"/>
<path d="" fill="#4F504E" transform="translate(0,0)"/>
<path d="" fill="#545451" transform="translate(0,0)"/>
</svg>
