<?xml version="1.0" encoding="UTF-8"?>
<svg version="1.1" xmlns="http://www.w3.org/2000/svg" width="1024" height="1024">
<path d="M0 0 C3.74719322 1.63939703 6.30975924 3.92328006 9.265625 6.71875 C10.92328486 8.38909926 10.92328486 8.38909926 13 9.3125 C13 9.9725 13 10.6325 13 11.3125 C13.53625 11.539375 14.0725 11.76625 14.625 12 C17.82460161 13.76820089 20.29037223 15.84920203 23 18.3125 C23 18.9725 23 19.6325 23 20.3125 C23.55921143 20.54718994 24.11842285 20.78187988 24.69458008 21.02368164 C27.5677706 22.62990559 29.55533346 24.6084439 31.88671875 26.93359375 C32.34802689 27.39298843 32.80933502 27.85238312 33.28462219 28.32569885 C34.261138 29.30085615 35.23514256 30.27853383 36.20678711 31.25854492 C37.6585812 32.7208714 39.12049529 34.17243669 40.58398438 35.62304688 C46.82337668 41.85336153 52.52225339 48.39881879 58 55.3125 C58.87900426 56.37447519 59.76000038 57.43481106 60.64453125 58.4921875 C80.20218013 82.80710232 89.84380668 109.14289657 88 140.3125 C86.01952552 157.42216616 77.27139507 173.64485038 64.0625 184.625 C53.42968794 192.68457444 41.24276956 198.3495231 28 200.3125 C27.85304688 200.993125 27.70609375 201.67375 27.5546875 202.375 C25.92272453 209.42808133 23.72111744 216.070333 21.06982422 222.79101562 C17.69356195 231.41804442 15.96072527 241.19659296 19.5625 250.0625 C24.06371541 258.75125727 30.89828067 264.09610123 39 269.3125 C38.67 270.6325 38.34 271.9525 38 273.3125 C33.87098427 274.46340413 29.8850332 274.45276816 25.62646484 274.44189453 C24.78362946 274.44364685 23.94079407 274.44539917 23.07241821 274.44720459 C20.28523703 274.45160617 17.49811934 274.44868946 14.7109375 274.4453125 C12.76762886 274.4459864 10.82432031 274.44695715 8.88101196 274.44821167 C4.80396728 274.44968666 0.72694449 274.44754183 -3.35009766 274.44287109 C-8.55495274 274.43719668 -13.759756 274.44043951 -18.96460915 274.44644356 C-22.98139835 274.45007397 -26.99817547 274.44889883 -31.01496506 274.44631577 C-32.93254986 274.44565216 -34.85013578 274.44645495 -36.76771927 274.44879532 C-55.21260064 274.46635463 -55.21260064 274.46635463 -64 273.3125 C-66.52009414 260.02473088 -62.00999806 247.5769531 -55 236.3125 C-49.60323266 228.47878408 -43.39415871 221.28768375 -37.1105957 214.15625 C-31.54907734 208.38863687 -31.54907734 208.38863687 -29 201.3125 C-29.56807373 201.13710693 -30.13614746 200.96171387 -30.72143555 200.78100586 C-52.66140932 193.93488243 -71.72693908 185.43775937 -83.02587891 164.33105469 C-87.11768654 155.8520909 -90.48743702 146.79877433 -90 137.3125 C-90.66 136.9825 -91.32 136.6525 -92 136.3125 C-92.02686553 134.33340602 -92.04633375 132.35421029 -92.0625 130.375 C-92.07410156 129.27285156 -92.08570313 128.17070312 -92.09765625 127.03515625 C-92 124.3125 -92 124.3125 -91 123.3125 C-90.83995382 121.29413988 -90.7225184 119.2723458 -90.625 117.25 C-90.22213732 111.62823446 -89.24876185 107.41154437 -87 102.3125 C-86.1814593 100.16896365 -85.36951523 98.02290208 -84.5625 95.875 C-79.1699766 81.96036373 -72.09304606 71.16621357 -63 59.3125 C-62.36191406 58.4771875 -61.72382813 57.641875 -61.06640625 56.78125 C-56.66709522 51.14720511 -51.93637711 45.88681997 -47.03588867 40.68969727 C-44.79801662 38.30947159 -42.8173687 36.03855305 -41 33.3125 C-40.34 33.3125 -39.68 33.3125 -39 33.3125 C-38.74476563 32.71953125 -38.48953125 32.1265625 -38.2265625 31.515625 C-36.87376259 29.0857551 -35.51658724 27.82013734 -33.375 26.0625 C-30.47401628 23.61544719 -27.76256053 21.10369576 -25.125 18.375 C-21.46579472 14.66557033 -17.57070628 11.40407465 -13.453125 8.21484375 C-11.87442868 6.99059995 -10.31958157 5.7346269 -8.796875 4.44140625 C-3.91565734 0.40788097 -3.91565734 0.40788097 0 0 Z " fill="#1A3D31" transform="translate(254,368.6875)"/>
<path d="M0 0 C54.71481092 0 54.71481092 0 63.953125 7.796875 C70.78994423 15.15558883 73.3564305 24.11590817 73 34 C72.17782332 42.97306621 67.80408803 50.16792454 61 56 C58.70429795 57.40589019 56.3523138 58.68887427 54 60 C55.01707031 61.54494141 55.01707031 61.54494141 56.0546875 63.12109375 C61.05452779 70.7578547 65.94176618 78.43934134 70.5625 86.3125 C70.97935059 87.02269287 71.39620117 87.73288574 71.82568359 88.46459961 C73.65773611 91.61128077 75.3688989 94.7377978 77 98 C69.41 98 61.82 98 54 98 C53.278125 96.47375 52.55625 94.9475 51.8125 93.375 C48.05680704 85.80905195 43.69136733 78.6151455 39.31958008 71.39208984 C38.76294678 70.46605957 38.20631348 69.5400293 37.6328125 68.5859375 C37.12637207 67.7511084 36.61993164 66.9162793 36.09814453 66.05615234 C35 64 35 64 35 62 C30.05 62.33 25.1 62.66 20 63 C20 74.55 20 86.1 20 98 C13.4 98 6.8 98 0 98 C0 65.66 0 33.32 0 0 Z M19 17 C19 26.24 19 35.48 19 45 C22.83625 45.061875 26.6725 45.12375 30.625 45.1875 C31.82334473 45.21481201 33.02168945 45.24212402 34.25634766 45.27026367 C42.05226682 45.33397725 42.05226682 45.33397725 49 42 C52.57382952 37.11576632 52.86334021 31.84414914 52 26 C50.38273022 22.76546043 49.10458497 20.79987187 46.1875 18.6875 C40.10828724 16.77689027 33.86104706 16.87204099 27.5625 16.9375 C24.736875 16.958125 21.91125 16.97875 19 17 Z " fill="#1C3F32" transform="translate(619,463)"/>
<path d="M0 0 C0 5.61 0 11.22 0 17 C-14.85 17 -29.7 17 -45 17 C-45 24.92 -45 32.84 -45 41 C-43.22625 40.835 -41.4525 40.67 -39.625 40.5 C-28.1052451 39.6550593 -16.54304844 39.91537355 -5 40 C-4 44 -4 44 -4 58 C-17.2 58.33 -30.4 58.66 -44 59 C-44 65.93 -44 72.86 -44 80 C-22.22 80.495 -22.22 80.495 0 81 C0 86.61 0 92.22 0 98 C-21.12 98 -42.24 98 -64 98 C-64 65.66 -64 33.32 -64 0 C-48.716875 -0.2784375 -48.716875 -0.2784375 -33.125 -0.5625 C-29.90637207 -0.62381104 -26.68774414 -0.68512207 -23.37158203 -0.74829102 C-20.83366591 -0.79223864 -18.29574312 -0.83580361 -15.7578125 -0.87890625 C-14.7653804 -0.89895973 -14.7653804 -0.89895973 -13.75289917 -0.91941833 C-11.80817516 -0.95831869 -9.86331399 -0.99016708 -7.91845703 -1.02172852 C-6.27298386 -1.05170677 -6.27298386 -1.05170677 -4.5942688 -1.08229065 C-2 -1 -2 -1 0 0 Z " fill="#1C3E31" transform="translate(448,463)"/>
<path d="M0 0 C0.80566406 0.04833984 1.61132812 0.09667969 2.44140625 0.14648438 C3.28316406 0.20255859 4.12492188 0.25863281 4.9921875 0.31640625 C6.26642578 0.3947168 6.26642578 0.3947168 7.56640625 0.47460938 C9.66697874 0.60442003 11.76712941 0.74102365 13.8671875 0.87890625 C13.89030882 13.5088611 13.90810151 26.13881095 13.91899967 38.76878262 C13.92422896 44.63272789 13.93132744 50.49665874 13.94262695 56.3605957 C13.9534542 62.01452337 13.95946399 67.66843712 13.96206474 73.32237434 C13.96391929 75.48464235 13.96754045 77.64690956 13.97291756 79.80917168 C13.98012583 82.82649282 13.98117853 85.84375568 13.98071289 88.86108398 C13.98430817 89.76451035 13.98790344 90.66793671 13.99160767 91.59873962 C13.98123966 97.76485409 13.98123966 97.76485409 12.8671875 98.87890625 C11.52451337 98.96522499 10.17744428 98.98597098 8.83203125 98.9765625 C8.02314453 98.97333984 7.21425781 98.97011719 6.38085938 98.96679688 C5.53072266 98.95841797 4.68058594 98.95003906 3.8046875 98.94140625 C2.95068359 98.93689453 2.09667969 98.93238281 1.21679688 98.92773438 C-0.89976913 98.91590998 -3.01629935 98.89797394 -5.1328125 98.87890625 C-5.6278125 95.41390625 -5.6278125 95.41390625 -6.1328125 91.87890625 C-6.58011719 92.28882813 -7.02742187 92.69875 -7.48828125 93.12109375 C-13.62560214 98.59103007 -18.86683506 100.761008 -27.1328125 100.87890625 C-36.24411375 100.00255208 -43.05584142 96.89079596 -49.1328125 89.87890625 C-57.30593124 78.90009003 -59.63908779 67.45047138 -57.70703125 53.890625 C-55.57920885 43.82589452 -50.89685774 34.79554369 -42.14453125 29.02734375 C-34.41158547 24.61280771 -27.04549123 23.7610104 -18.1328125 24.87890625 C-13.80196055 26.49177525 -10.3936195 28.61809925 -7.1328125 31.87890625 C-6.8028125 21.64890625 -6.4728125 11.41890625 -6.1328125 0.87890625 C-3.77622853 -0.29938574 -2.60708014 -0.16523747 0 0 Z M-35.1328125 47.87890625 C-39.33834249 54.42084179 -39.71356116 61.61000346 -38.4453125 69.12890625 C-37.24954519 74.11517778 -35.7026984 78.05143183 -31.375 81.12890625 C-26.48880971 83.88816665 -22.6919325 84.50654883 -17.1328125 83.87890625 C-11.86686906 82.02033798 -9.33885482 79.27576429 -6.1328125 74.87890625 C-3.8775438 68.11310015 -4.02812164 57.9255263 -6.3203125 51.19140625 C-8.87305206 46.52605464 -11.21960547 43.71593433 -16.1328125 41.56640625 C-23.6305115 39.84818356 -30.18449741 41.69351239 -35.1328125 47.87890625 Z " fill="#1C3F32" transform="translate(793.1328125,462.12109375)"/>
<path d="M0 0 C9.55850435 6.76912669 14.21612563 14.96135745 16.1640625 26.36328125 C16.83510924 30.75997946 16.75982803 34.31741358 15.8515625 38.67578125 C16.5115625 39.00578125 17.1715625 39.33578125 17.8515625 39.67578125 C14.97193416 40.63565736 13.18528809 40.79731939 10.1965332 40.78930664 C9.25578445 40.78923111 8.31503571 40.78915558 7.34577942 40.78907776 C6.33319565 40.78391647 5.32061188 40.77875519 4.27734375 40.7734375 C3.23837448 40.77202255 2.19940521 40.7706076 1.12895203 40.76914978 C-2.19270698 40.76354781 -5.51429883 40.75099497 -8.8359375 40.73828125 C-11.08658757 40.7332665 -13.33723869 40.72870355 -15.58789062 40.72460938 C-21.10809587 40.71357774 -26.62826189 40.69683768 -32.1484375 40.67578125 C-31.52623027 46.49444445 -30.76882742 48.91499876 -26.1484375 52.67578125 C-21.63809306 55.38009678 -17.27067031 55.2009313 -12.1484375 54.67578125 C-7.34423953 52.95999626 -6.48064105 52.34018835 -4.1484375 47.67578125 C2.4515625 47.67578125 9.0515625 47.67578125 15.8515625 47.67578125 C10.99727771 57.93912624 6.35539189 64.75258902 -4.1484375 69.67578125 C-15.04040729 73.12572643 -24.68015552 72.01190785 -35.1484375 67.67578125 C-42.84491608 63.25488731 -48.37921141 57.01696758 -51.1796875 48.5625 C-54.70532971 34.6721226 -53.56622694 23.17124849 -46.9140625 10.48046875 C-42.39199335 3.29718192 -35.34524185 -1.32524961 -27.33203125 -3.91015625 C-17.97377565 -5.68470919 -8.17148128 -5.03660392 0 0 Z M-28.5234375 14.98828125 C-31.9216435 18.46739691 -33.1484375 20.83103436 -33.1484375 25.67578125 C-22.9184375 25.67578125 -12.6884375 25.67578125 -2.1484375 25.67578125 C-3.20851298 19.31532837 -4.30737437 16.67674666 -9.1484375 12.67578125 C-15.77032692 9.33070309 -22.74866513 10.55908691 -28.5234375 14.98828125 Z " fill="#1C3E31" transform="translate(870.1484375,491.32421875)"/>
<path d="M0 0 C7.23175602 5.96235204 12.55836861 14.49125237 13.51391602 23.92626953 C13.6157314 26.03912636 13.64173607 28.13480046 13.625 30.25 C13.61936035 30.99693115 13.6137207 31.7438623 13.60791016 32.51342773 C13.36586472 43.56723546 10.08162936 50.87060913 2.49609375 58.84765625 C-5.27395796 66.24097818 -13.63271935 68.57164726 -24.2265625 69.03125 C-35.28370624 68.73173369 -43.95384949 64.11816774 -51.5 56.1875 C-58.36146118 47.86141138 -60.41628527 37.54324353 -59.6875 26.9375 C-58.63842729 17.8105674 -55.28709407 8.53709407 -48.6875 1.9375 C-33.93680954 -9.68425612 -15.55344952 -10.85609899 0 0 Z M-34.31640625 13.296875 C-39.1044187 18.8423939 -40.58257431 24.76757758 -40.6875 31.9375 C-39.94189343 39.12136014 -37.56805523 44.33797455 -32.125 49.25 C-27.86507353 52.19917987 -23.73199435 52.45537585 -18.6875 51.9375 C-12.65039646 49.80675758 -9.16384467 45.96049147 -6.375 40.25 C-4.71894513 32.27082655 -4.98793721 24.30691021 -8.6875 16.9375 C-12.12742476 12.54204059 -15.54362396 10.74738231 -20.6875 8.9375 C-25.52949248 8.9375 -30.53355335 10.13996179 -34.31640625 13.296875 Z " fill="#1D3F31" transform="translate(593.6875,494.0625)"/>
<path d="M0 0 C6.30388548 4.61284319 12.08718239 9.6411311 13.453125 17.66015625 C13.71388722 20.09965543 13.86576869 22.55027856 14 25 C7.73 25 1.46 25 -5 25 C-8 18 -8 18 -9 15 C-15.18846524 13.41875612 -20.38472149 12.16457305 -26.34765625 14.95703125 C-30.12097531 17.33877165 -31.6517472 20.11195535 -33.25 24.1875 C-34.89109734 32.52974483 -34.37285265 40.13001049 -31 48 C-28.48360605 51.35519193 -26.02955812 52.87547215 -22 54 C-16.76927949 54.47552005 -13.34372215 54.02171976 -9 51 C-8.27990048 49.65167042 -7.59359442 48.28499403 -6.93359375 46.90625 C-5.39723667 44.36442363 -4.69710829 43.20835272 -1.81738281 42.34765625 C0.76680928 42.2123475 3.2328305 42.29993615 5.8125 42.5 C6.69615234 42.53609375 7.57980469 42.5721875 8.49023438 42.609375 C10.66202972 42.70329047 12.83158115 42.84678493 15 43 C12.51359512 52.97537543 8.74907605 60.85460028 0.05859375 66.78515625 C-9.17307612 72.23306769 -19.20108576 72.90793182 -29.57421875 70.6484375 C-37.65159429 68.48926787 -44.31041762 63.15143607 -48.83984375 56.16015625 C-54.92820829 44.59375223 -56.30978309 33.87267287 -53.31640625 21.078125 C-50.30392129 11.598839 -44.97020729 4.32733586 -36.25 -0.5625 C-25.64753972 -5.90916925 -10.27681793 -6.4820212 0 0 Z " fill="#1D4033" transform="translate(512,491)"/>
<path d="M0 0 C5.28 0 10.56 0 16 0 C16.66285897 21.04577221 11.58953395 37.09691539 3.8762207 56.61254883 C0.34075395 66.24568603 0.69117462 78.14820911 4.64453125 87.58203125 C6.87741482 91.56518666 9.75086109 94.81474865 13 98 C10.40765311 100.59234689 8.63930852 100.23764979 5.10795593 100.25224304 C3.90016228 100.24146477 3.90016228 100.24146477 2.66796875 100.23046875 C1.42482658 100.22978142 1.42482658 100.22978142 0.15657043 100.2290802 C-1.59949166 100.22605594 -3.35555102 100.21816447 -5.11157227 100.20581055 C-7.79127589 100.18764389 -10.47063206 100.18530028 -13.15039062 100.18554688 C-14.8567738 100.18062802 -16.56315465 100.1747981 -18.26953125 100.16796875 C-19.46821587 100.16629951 -19.46821587 100.16629951 -20.69111633 100.16459656 C-28.68810065 100.09692734 -28.68810065 100.09692734 -32 99 C-36.46733372 91.29770048 -36.19167895 81.4973285 -34.34375 72.97265625 C-31.06877772 63.13362315 -24.91188627 55.05692219 -18.5 47.0625 C-7.12623055 32.79267655 -0.68762281 18.33660814 0 0 Z " fill="#F8B455" transform="translate(251,543)"/>
<path d="M0 0 C2.5 -0.3125 2.5 -0.3125 5 0 C7.5977179 2.5977179 7.32674043 3.83364333 7.50244141 7.45947266 C7.5623526 8.60050446 7.62226379 9.74153625 7.68399048 10.91714478 C7.73928925 12.15362762 7.79458801 13.39011047 7.8515625 14.6640625 C7.94719986 16.5575795 7.94719986 16.5575795 8.04476929 18.48934937 C8.21261597 21.84610138 8.37227082 25.20304233 8.52801514 28.56036377 C8.68892703 31.98589334 8.86053325 35.41088506 9.03125 38.8359375 C9.36405433 45.55683846 9.68607335 52.27819228 10 59 C15.35629011 56.73335326 18.62611648 53.69292642 22.53515625 49.546875 C23.76847711 48.27565046 25.00221335 47.00482881 26.23632812 45.734375 C28.15998592 43.73600008 30.07851341 41.73315275 31.98950195 39.72265625 C33.84583212 37.77596428 35.72018841 35.84815672 37.59765625 33.921875 C38.16549332 33.31365906 38.73333038 32.70544312 39.31837463 32.07879639 C40.95727539 30.40917969 40.95727539 30.40917969 44 28 C46.90014648 28.12988281 46.90014648 28.12988281 49 29 C49.6796875 31.26953125 49.6796875 31.26953125 50 34 C48.8828125 35.88671875 48.8828125 35.88671875 47.125 37.6875 C46.4753125 38.37585938 45.825625 39.06421875 45.15625 39.7734375 C44.4446875 40.50820313 43.733125 41.24296875 43 42 C41.53481001 43.59790647 40.07670587 45.20233328 38.625 46.8125 C37.86316406 47.65554688 37.10132813 48.49859375 36.31640625 49.3671875 C33.21664927 52.89035142 30.28666383 56.54024955 27.33984375 60.19140625 C24.09007908 64.09220892 20.64133234 67.79413862 17.1640625 71.4921875 C12.76251076 76.59290269 11.47470982 79.96985796 11.62890625 86.609375 C12.25396981 92.32048206 13.69174703 97.82058663 15.125 103.375 C16 107 16 107 16 110 C10.72 110 5.44 110 0 110 C-0.680625 107.73125 -1.36125 105.4625 -2.0625 103.125 C-5.54404378 92.35520781 -11.80429779 85.0090939 -19.45703125 76.7890625 C-22.71539296 73.21537547 -25.73242251 69.47657915 -28.75 65.69921875 C-31.0695358 62.91658119 -33.54335822 60.35180112 -36.0625 57.75 C-40.5625 52.859375 -40.5625 52.859375 -40.5625 48.875 C-40.376875 47.92625 -40.19125 46.9775 -40 46 C-34.6701856 46.17820048 -32.42398847 48.05602336 -28.8996582 51.71191406 C-28.314021 52.34323242 -27.72838379 52.97455078 -27.125 53.625 C-25.89372807 54.90538018 -24.66066801 56.18404334 -23.42578125 57.4609375 C-22.83748535 58.07420898 -22.24918945 58.68748047 -21.64306641 59.31933594 C-17.74881558 63.30269741 -13.6321553 66.91189647 -9 70 C-8.01 70 -7.02 70 -6 70 C-4.77646489 67.55292979 -4.81077017 65.83479637 -4.71875 63.09814453 C-4.68201172 62.07592804 -4.64527344 61.05371155 -4.60742188 60.0005188 C-4.57197266 58.88917572 -4.53652344 57.77783264 -4.5 56.6328125 C-4.45939453 55.4877121 -4.41878906 54.34261169 -4.37695312 53.16281128 C-4.24693846 49.48367758 -4.12299815 45.80437448 -4 42.125 C-3.87642124 38.48135744 -3.75144153 34.83778159 -3.62304688 31.19430542 C-3.5432772 28.92595417 -3.46628218 26.65750297 -3.39257812 24.38894653 C-3.20650578 19.05196536 -2.95844394 13.72199349 -2.59375 8.39404297 C-2.52865234 7.42965302 -2.46355469 6.46526306 -2.39648438 5.47164917 C-2 3 -2 3 0 0 Z " fill="#4D7255" transform="translate(251,433)"/>
<path d="M0 0 C0.24050903 2.9359436 0.24050903 2.9359436 0.22705078 6.74462891 C0.22734283 7.43742447 0.22763489 8.13022003 0.22793579 8.8440094 C0.22654031 11.13832034 0.21096919 13.43230816 0.1953125 15.7265625 C0.19158314 17.31553978 0.1887358 18.90451936 0.18673706 20.49349976 C0.17909453 24.67914154 0.15944081 28.8646449 0.1373291 33.05023193 C0.11688396 37.31992724 0.1077382 41.58964487 0.09765625 45.859375 C0.07619541 54.23965399 0.04100831 62.61979384 0 71 C-6.27 71 -12.54 71 -19 71 C-19.86074769 46.99128771 -20.1292864 23.02340192 -20 -1 C-17.04210873 -1.2210949 -14.08447236 -1.42740245 -11.125 -1.625 C-10.28324219 -1.68945312 -9.44148437 -1.75390625 -8.57421875 -1.8203125 C-7.36572266 -1.89765625 -7.36572266 -1.89765625 -6.1328125 -1.9765625 C-5.01737061 -2.05511475 -5.01737061 -2.05511475 -3.87939453 -2.13525391 C-2 -2 -2 -2 0 0 Z " fill="#1C3D30" transform="translate(724,490)"/>
<path d="M0 0 C2.95898516 2.39917716 4.06594487 4.27384074 5.3125 7.875 C5.3125 12.4107202 4.82656801 14.26866337 1.875 17.75 C-2.14003549 21.07954163 -4.45894885 21.3107126 -9.6875 20.875 C-13.11824154 19.12726375 -15.12580848 17.80301207 -17.125 14.5 C-17.96067036 10.60020498 -17.81249328 7.62137946 -15.60546875 4.1953125 C-11.31641462 -1.2210761 -6.49467361 -2.71870058 0 0 Z " fill="#1E4133" transform="translate(720.6875,461.125)"/>
<path d="M0 0 C0.33 0 0.66 0 1 0 C1 5.28 1 10.56 1 16 C-13.52 16 -28.04 16 -43 16 C-43 23.92 -43 31.84 -43 40 C-41.22625 39.835 -39.4525 39.67 -37.625 39.5 C-26.1052451 38.6550593 -14.54304844 38.91537355 -3 39 C-1.93723686 42.76440006 -2.08577931 45.84199237 -2.4375 49.75 C-2.53933594 50.92046875 -2.64117187 52.0909375 -2.74609375 53.296875 C-2.82988281 54.18890625 -2.91367187 55.0809375 -3 56 C-3.66 56 -4.32 56 -5 56 C-5 51.38 -5 46.76 -5 42 C-6.71098877 42.01571045 -6.71098877 42.01571045 -8.45654297 42.03173828 C-12.67949294 42.06787717 -16.90242919 42.09087812 -21.12548828 42.10986328 C-22.95493873 42.11993484 -24.78437303 42.13359276 -26.61376953 42.15087891 C-29.23994934 42.17507677 -31.86591675 42.18647132 -34.4921875 42.1953125 C-35.72350906 42.21079636 -35.72350906 42.21079636 -36.97970581 42.22659302 C-38.98789142 42.22699184 -40.99555382 42.1224954 -43 42 C-45 40 -45 40 -45.24291992 37.49389648 C-45.23881104 36.46337158 -45.23470215 35.43284668 -45.23046875 34.37109375 C-45.22853516 33.25412109 -45.22660156 32.13714844 -45.22460938 30.98632812 C-45.21236328 29.81521484 -45.20011719 28.64410156 -45.1875 27.4375 C-45.18685547 26.26251953 -45.18621094 25.08753906 -45.18554688 23.87695312 C-45.14012141 15.14012141 -45.14012141 15.14012141 -44 14 C-41.25847328 13.89883665 -38.54270586 13.86031169 -35.80078125 13.8671875 C-34.97297653 13.86623077 -34.14517181 13.86527405 -33.2922821 13.86428833 C-31.53445358 13.86360615 -29.77662255 13.86546307 -28.01879883 13.86962891 C-25.34124998 13.87494294 -22.66387148 13.86970281 -19.98632812 13.86328125 C-18.27864547 13.86394269 -16.57096291 13.86522521 -14.86328125 13.8671875 C-14.0661824 13.86516327 -13.26908356 13.86313904 -12.4478302 13.86105347 C-11.31216866 13.86578171 -11.31216866 13.86578171 -10.15356445 13.87060547 C-9.16547539 13.87179886 -9.16547539 13.87179886 -8.15742493 13.87301636 C-5.4171988 14.03430303 -2.70762035 14.54872994 0 15 C0 10.05 0 5.1 0 0 Z " fill="#0D2018" transform="translate(446,464)"/>
<path d="M0 0 C0.66 0 1.32 0 2 0 C2.83903104 20.14567091 3.10950281 40.27495409 3.125 60.4375 C3.12749756 61.58005249 3.12999512 62.72260498 3.13256836 63.89978027 C3.13849765 67.20274836 3.13695396 70.50562447 3.1328125 73.80859375 C3.13578842 75.2804438 3.13578842 75.2804438 3.13882446 76.7820282 C3.11842343 82.91095306 2.72621059 88.91416889 2 95 C1.34 95 0.68 95 0 95 C0 63.65 0 32.3 0 0 Z " fill="#0B1D15" transform="translate(804,464)"/>
<path d="M0 0 C0.75369873 0.00410889 1.50739746 0.00821777 2.28393555 0.01245117 C3.1121582 0.01438477 3.94038086 0.01631836 4.79370117 0.01831055 C6.09404297 0.03667969 6.09404297 0.03667969 7.4206543 0.05541992 C8.27594727 0.05606445 9.13124023 0.05670898 10.01245117 0.05737305 C14.16441454 0.0863178 18.06112111 0.19987013 22.1081543 1.24291992 C22.1081543 1.57291992 22.1081543 1.90291992 22.1081543 2.24291992 C14.1881543 2.24291992 6.2681543 2.24291992 -1.8918457 2.24291992 C-1.5618457 2.90291992 -1.2318457 3.56291992 -0.8918457 4.24291992 C-0.7955449 5.94780753 -0.76109535 7.65640969 -0.7590332 9.36401367 C-0.75774414 10.38172852 -0.75645508 11.39944336 -0.75512695 12.44799805 C-0.75899414 13.51469727 -0.76286133 14.58139648 -0.7668457 15.68041992 C-0.76297852 16.74325195 -0.75911133 17.80608398 -0.75512695 18.90112305 C-0.75706055 20.42962891 -0.75706055 20.42962891 -0.7590332 21.98901367 C-0.7607251 23.39171509 -0.7607251 23.39171509 -0.76245117 24.82275391 C-0.8918457 27.24291992 -0.8918457 27.24291992 -1.8918457 30.24291992 C6.6881543 30.24291992 15.2681543 30.24291992 24.1081543 30.24291992 C24.1081543 30.90291992 24.1081543 31.56291992 24.1081543 32.24291992 C15.1981543 32.24291992 6.2881543 32.24291992 -2.8918457 32.24291992 C-5.18015678 27.66629776 -4.07687276 21.26794701 -4.0793457 16.24291992 C-4.0915918 14.93323242 -4.10383789 13.62354492 -4.11645508 12.27416992 C-4.11838867 11.02635742 -4.12032227 9.77854492 -4.12231445 8.49291992 C-4.12642334 7.34307617 -4.13053223 6.19323242 -4.13476562 5.00854492 C-3.85541549 1.82816466 -3.33981087 0.42884396 0 0 Z " fill="#1B3026" transform="translate(639.891845703125,477.757080078125)"/>
<path d="M0 0 C3.35883344 0.58380598 5.0002098 1.62412522 7.390625 4.02734375 C8.01453125 4.6502832 8.6384375 5.27322266 9.28125 5.91503906 C9.9309375 6.58245117 10.580625 7.24986328 11.25 7.9375 C11.91515625 8.61393555 12.5803125 9.29037109 13.265625 9.98730469 C24.32299765 21.35242648 24.32299765 21.35242648 27 26 C26.67 26.99 26.34 27.98 26 29 C17.45424982 19.54347826 17.45424982 19.54347826 13.5625 15 C9.9056428 10.78253969 5.9340632 6.90135827 1.94140625 3.00390625 C0 1 0 1 0 0 Z " fill="#1B3025" transform="translate(284,397)"/>
<path d="M0 0 C0.66 0 1.32 0 2 0 C1.96519531 1.01578125 1.93039062 2.0315625 1.89453125 3.078125 C1.68667595 11.91251359 2.47837412 19.46828135 5 28 C5.35095968 29.66304425 5.68986085 31.32886189 6 33 C5.34 33 4.68 33 4 33 C-0.65101213 22.24859056 -2.64084833 11.61134899 0 0 Z " fill="#21372D" transform="translate(736,514)"/>
<path d="M0 0 C0.99 0 1.98 0 3 0 C7.51169147 7.781633 10.63792676 14.84309295 10 24 C9 26.84765625 9 26.84765625 8 29 C7.67 29 7.34 29 7 29 C6.96559814 28.44127197 6.93119629 27.88254395 6.89575195 27.30688477 C6.31749159 12.75344431 6.31749159 12.75344431 0 0 Z " fill="#1A3025" transform="translate(682,473)"/>
<path d="M0 0 C0.33 0 0.66 0 1 0 C1.03738281 1.11117187 1.07476562 2.22234375 1.11328125 3.3671875 C1.59898653 15.19843584 2.24849056 25.76623988 10.75 34.875 C11.1625 35.24625 11.575 35.6175 12 36 C11.67 36.99 11.34 37.98 11 39 C9.9020701 37.8681453 8.82255636 36.71842733 7.75 35.5625 C6.84507812 34.60537109 6.84507812 34.60537109 5.921875 33.62890625 C0.45707471 26.15368147 -0.56399208 19.56138531 -0.25 10.4375 C-0.23195313 9.42880859 -0.21390625 8.42011719 -0.1953125 7.38085938 C-0.14865249 4.91954395 -0.0832157 2.46030429 0 0 Z " fill="#14271D" transform="translate(459,516)"/>
<path d="M0 0 C12.70203214 -1.19830492 12.70203214 -1.19830492 18 0 C21.35486049 2.81869557 22.96254781 5.7527125 24 10 C23.67 10.66 23.34 11.32 23 12 C19.15317056 8.66608116 18.76244306 7.28732917 17 2 C11.72 2 6.44 2 1 2 C0.67 2.99 0.34 3.98 0 5 C0 3.35 0 1.7 0 0 Z " fill="#1E3428" transform="translate(637,523)"/>
<path d="M0 0 C4.26411751 1.4213725 5.46547486 4.55094242 7.625 8.25 C8.03234375 8.91902344 8.4396875 9.58804688 8.859375 10.27734375 C11.12789435 14.10077536 12.09001168 16.45005838 13 21 C6.4 21 -0.2 21 -7 21 C-6.67 20.34 -6.34 19.68 -6 19 C-0.39 19.33 5.22 19.66 11 20 C9.80890625 18.08574219 9.80890625 18.08574219 8.59375 16.1328125 C7.56226708 14.46368559 6.53102974 12.79440688 5.5 11.125 C4.97535156 10.28324219 4.45070313 9.44148437 3.91015625 8.57421875 C3.41386719 7.76855469 2.91757812 6.96289062 2.40625 6.1328125 C1.71499023 5.01737061 1.71499023 5.01737061 1.00976562 3.87939453 C0 2 0 2 0 0 Z " fill="#102319" transform="translate(681,539)"/>
<path d="M0 0 C-0.20810303 0.58426758 -0.41620605 1.16853516 -0.63061523 1.77050781 C-1.09896657 4.59733159 -0.52651488 5.3570898 1.08984375 7.671875 C1.54423828 8.33574219 1.99863281 8.99960937 2.46679688 9.68359375 C2.95212891 10.36550781 3.43746094 11.04742188 3.9375 11.75 C4.41896484 12.44738281 4.90042969 13.14476562 5.39648438 13.86328125 C6.58640237 15.58336073 7.79175537 17.29274396 9 19 C8.67 19.66 8.34 20.32 8 21 C4.36428659 17.6811607 1.86067641 13.99935849 -0.75 9.875 C-1.16121094 9.24207031 -1.57242188 8.60914063 -1.99609375 7.95703125 C-5 3.25656665 -5 3.25656665 -5 1 C-2 0 -2 0 0 0 Z " fill="#1B3429" transform="translate(674,519)"/>
<path d="M0 0 C0.60972656 0.19851563 1.21945312 0.39703125 1.84765625 0.6015625 C0.72691763 1.44061815 -0.39908922 2.27264081 -1.52734375 3.1015625 C-2.46707031 3.79765625 -2.46707031 3.79765625 -3.42578125 4.5078125 C-5.15234375 5.6015625 -5.15234375 5.6015625 -7.15234375 5.6015625 C-7.41789063 6.16359375 -7.6834375 6.725625 -7.95703125 7.3046875 C-9.24565409 9.78086472 -10.71364736 12.04001132 -12.27734375 14.3515625 C-13.08558594 15.55039062 -13.08558594 15.55039062 -13.91015625 16.7734375 C-14.32007813 17.37671875 -14.73 17.98 -15.15234375 18.6015625 C-15.75390625 16.78515625 -15.75390625 16.78515625 -16.15234375 14.6015625 C-13.51097533 9.82678112 -6.20137149 -1.14798529 0 0 Z " fill="#192F25" transform="translate(554.15234375,491.3984375)"/>
<path d="M0 0 C2.97155254 2.8815055 5.71376347 5.82814246 8.375 9 C11.57542664 12.71390168 14.90310844 15.32447898 19 18 C18.01 18.33 17.02 18.66 16 19 C9.37410442 15.49632814 3.40431795 9.51079488 0.625 2.5625 C0.41875 1.716875 0.2125 0.87125 0 0 Z " fill="#1E3528" transform="translate(271,618)"/>
<path d="M0 0 C0.66 0 1.32 0 2 0 C3.66666667 1.66666667 5.33333333 3.33333333 7 5 C10.4600172 7.2342712 13.68941415 7.38136485 17.75 7.625 C18.92046875 7.69976563 20.0909375 7.77453125 21.296875 7.8515625 C22.63492188 7.92503906 22.63492188 7.92503906 24 8 C21.37167657 10.62832343 20.04065032 10.35861892 16.375 10.4375 C10.44844705 10.33777435 6.30477901 9.16955035 2 5 C0.5 2.1875 0.5 2.1875 0 0 Z " fill="#192E23" transform="translate(837,539)"/>
<path d="M0 0 C2.1875 1.8125 2.1875 1.8125 3 4.5 C3.061875 5.263125 3.12375 6.02625 3.1875 6.8125 C2.176875 5.966875 1.16625 5.12125 0.125 4.25 C-2.82703664 2.15250028 -3.70140315 1.81626599 -7.5 1.6875 C-11.38252839 3.00609455 -12.52012158 4.50128673 -14.8125 7.8125 C-15.4725 7.8125 -16.1325 7.8125 -16.8125 7.8125 C-15.63441948 4.4595016 -14.61843388 2.0572471 -11.8125 -0.1875 C-7.46669106 -1.63610298 -4.26055076 -1.79889921 0 0 Z " fill="#1A2F25" transform="translate(720.8125,461.1875)"/>
<path d="M0 0 C6.27 0 12.54 0 19 0 C18.67 1.65 18.34 3.3 18 5 C17.67 4.01 17.34 3.02 17 2 C14.93690624 2.11478413 12.87451646 2.24226198 10.8125 2.375 C9.66394531 2.44460938 8.51539063 2.51421875 7.33203125 2.5859375 C4.20040883 2.97509574 1.84714191 3.6809851 -1 5 C-0.67 3.35 -0.34 1.7 0 0 Z " fill="#2B4437" transform="translate(508,534)"/>
<path d="M0 0 C1.26985569 3.87729271 0.31687012 5.71324802 -1.23046875 9.4296875 C-2.8296914 14.77125351 -2.77426214 20.45774631 -3 26 C-6.13448703 21.29826946 -5.56652515 16.50529141 -5 11 C-2.54898336 2.54898336 -2.54898336 2.54898336 0 0 Z " fill="#14291F" transform="translate(480,507)"/>
<path d="M0 0 C-1 3 -1 3 -3 4.125 C-9.37950287 5.98568834 -14.74689566 6.72571215 -21 4 C-21 3.67 -21 3.34 -21 3 C-19.96359375 2.95101562 -18.9271875 2.90203125 -17.859375 2.8515625 C-16.48955792 2.77650403 -15.11976752 2.70095753 -13.75 2.625 C-13.06808594 2.5940625 -12.38617187 2.563125 -11.68359375 2.53125 C-7.50124189 2.28761785 -3.86242557 0 0 0 Z " fill="#1E3328" transform="translate(781,557)"/>
<path d="M0 0 C3.33300679 0.24688939 4.19656928 1.20615802 6.5625 3.6875 C10.37447027 8.6171776 12.4542643 12.64029977 12 19 C10 18 10 18 9.39453125 16.21484375 C9.20246094 15.46332031 9.01039063 14.71179688 8.8125 13.9375 C7.33278516 9.12071993 4.87810815 6.13367807 1.42578125 2.53125 C0 1 0 1 0 0 Z " fill="#182C23" transform="translate(872,495)"/>
<path d="M0 0 C3.08654738 3.71361118 5.77284307 7.58783443 8.3125 11.6875 C8.68439453 12.26822266 9.05628906 12.84894531 9.43945312 13.44726562 C10.35778792 14.92652 11.18708458 16.46029198 12 18 C11.67 18.66 11.34 19.32 11 20 C7.71635692 16.97788602 5.50019416 13.84648574 3.25 10 C2.63640625 8.96875 2.0228125 7.9375 1.390625 6.875 C0 4 0 4 0 0 Z " fill="#192C22" transform="translate(662,537)"/>
<path d="M0 0 C0.33 0.66 0.66 1.32 1 2 C0.34 2 -0.32 2 -1 2 C-2.49480306 5.55503162 -3.63721296 9.08584888 -4.625 12.8125 C-4.88539063 13.78832031 -5.14578125 14.76414062 -5.4140625 15.76953125 C-5.60742188 16.50558594 -5.80078125 17.24164062 -6 18 C-6.66 17.67 -7.32 17.34 -8 17 C-7.82815168 10.11044452 -6.49585858 6.26344419 -2 1 C-1.34 0.67 -0.68 0.34 0 0 Z " fill="#1B372C" transform="translate(468,498)"/>
<path d="M0 0 C3.65829164 3.54743432 7.02911477 7.26915157 10.3515625 11.1328125 C11.84464982 12.82403463 13.38585753 14.42498825 15 16 C10.23856908 15.56100282 8.36227627 13.78003148 5.25 10.25 C4.47140625 9.38890625 3.6928125 8.5278125 2.890625 7.640625 C0.97221284 4.96118983 0.34950224 3.23872075 0 0 Z " fill="#1E3327" transform="translate(175,536)"/>
<path d="M0 0 C0.33 0 0.66 0 1 0 C1.06058594 1.04800781 1.12117187 2.09601563 1.18359375 3.17578125 C1.26801738 4.55470048 1.35266447 5.93360605 1.4375 7.3125 C1.47681641 8.00279297 1.51613281 8.69308594 1.55664062 9.40429688 C1.74927415 12.47161535 2.02322717 15.06968152 3 18 C3.03954234 20.33299825 3.04401732 22.66708189 3 25 C2.34 25 1.68 25 1 25 C0.67 25.99 0.34 26.98 0 28 C0 18.76 0 9.52 0 0 Z " fill="#1B382C" transform="translate(636,480)"/>
<path d="M0 0 C6.27 0 12.54 0 19 0 C18.67 0.66 18.34 1.32 18 2 C11.65383991 3.36145995 6.05086238 3.28588134 0 1 C0 0.67 0 0.34 0 0 Z " fill="#1F352A" transform="translate(484,560)"/>
<path d="M0 0 C0.99 0.33 1.98 0.66 3 1 C2.55269531 1.56847656 2.10539063 2.13695312 1.64453125 2.72265625 C-2.0224016 7.40600972 -5.5820386 12.13199437 -9 17 C-9.33 16.01 -9.66 15.02 -10 14 C-8.671875 11.66015625 -8.671875 11.66015625 -6.75 9.0625 C-6.12609375 8.20785156 -5.5021875 7.35320312 -4.859375 6.47265625 C-4.24578125 5.65667969 -3.6321875 4.84070313 -3 4 C-2.42765625 3.23558594 -1.8553125 2.47117187 -1.265625 1.68359375 C-0.63914063 0.85021484 -0.63914063 0.85021484 0 0 Z " fill="#182D23" transform="translate(194,424)"/>
<path d="M0 0 C0.66 0 1.32 0 2 0 C2.70132913 6.70019789 3.11044961 13.26257354 3 20 C2.67 20 2.34 20 2 20 C1.814375 18.824375 1.814375 18.824375 1.625 17.625 C1.20882007 14.85942178 1.20882007 14.85942178 -1 13 C-1.23046875 10.21484375 -1.23046875 10.21484375 -1.1875 6.9375 C-1.18105469 5.85339844 -1.17460937 4.76929688 -1.16796875 3.65234375 C-1 1 -1 1 0 0 Z " fill="#25392E" transform="translate(163,492)"/>
<path d="M0 0 C0.99 0.33 1.98 0.66 3 1 C2.67 6.28 2.34 11.56 2 17 C1.34 17 0.68 17 0 17 C-0.19436491 14.54203147 -0.3807742 12.08390706 -0.5625 9.625 C-0.61857422 8.92632812 -0.67464844 8.22765625 -0.73242188 7.5078125 C-1.11328125 2.2265625 -1.11328125 2.2265625 0 0 Z " fill="#172E24" transform="translate(441,503)"/>
<path d="M0 0 C0.99 0 1.98 0 3 0 C7.13756196 5.11534401 9.71444067 10.43213552 10 17 C9.34 17 8.68 17 8 17 C7.75765625 16.35933594 7.5153125 15.71867188 7.265625 15.05859375 C5.20715373 9.74615443 2.96230321 4.86664099 0 0 Z " fill="#192F25" transform="translate(596,499)"/>
<path d="M0 0 C0.886875 0.78375 1.77375 1.5675 2.6875 2.375 C5.30720519 4.57156991 7.71715601 5.93790341 11 7 C11 7.66 11 8.32 11 9 C13.31 9 15.62 9 18 9 C18 9.33 18 9.66 18 10 C11.5959301 10.45743356 7.42348408 9.48834422 2 6 C1.34 5.34 0.68 4.68 0 4 C0 2.68 0 1.36 0 0 Z " fill="#182F24" transform="translate(757,538)"/>
<path d="M0 0 C0.33 0 0.66 0 1 0 C1.14695312 0.64066406 1.29390625 1.28132812 1.4453125 1.94140625 C3.09212009 8.29202632 5.30733636 12.41364265 10 17 C5.55955487 15.64319732 3.54835485 13.86646942 1 10 C-0.58923368 6.29178807 -1.47931712 3.84622452 0 0 Z " fill="#1E3529" transform="translate(477,529)"/>
<path d="M0 0 C0.66 0.66 1.32 1.32 2 2 C4.66242821 2.46290221 4.66242821 2.46290221 7.625 2.625 C9.12933594 2.73714844 9.12933594 2.73714844 10.6640625 2.8515625 C11.43492187 2.90054688 12.20578125 2.94953125 13 3 C13 3.66 13 4.32 13 5 C6.565 5.495 6.565 5.495 0 6 C0 4.02 0 2.04 0 0 Z " fill="#183025" transform="translate(507,510)"/>
<path d="M0 0 C0.33 0 0.66 0 1 0 C0.73735498 6.30348044 -1.36519172 10.63156001 -6 15 C-9.375 16 -9.375 16 -12 16 C-11.278125 15.484375 -10.55625 14.96875 -9.8125 14.4375 C-5.18439893 10.42647907 -1.94774237 5.8432271 0 0 Z " fill="#15271D" transform="translate(688,503)"/>
<path d="M0 0 C0.33 0 0.66 0 1 0 C1.74984705 4.00091404 2.1195296 7.76749517 2.09765625 11.8359375 C2.09443359 12.89941406 2.09121094 13.96289062 2.08789062 15.05859375 C2.07951172 16.15300781 2.07113281 17.24742187 2.0625 18.375 C2.05798828 19.49261719 2.05347656 20.61023438 2.04882812 21.76171875 C2.03709244 24.50786804 2.02067363 27.25390586 2 30 C1.67 30 1.34 30 1 30 C0.1611484 22.48905184 -0.0773541 15.49175465 1 8 C0.34 8 -0.32 8 -1 8 C-0.67 5.36 -0.34 2.72 0 0 Z " fill="#2C4437" transform="translate(340,479)"/>
<path d="M0 0 C0.66 0 1.32 0 2 0 C2 4.95 2 9.9 2 15 C-1 12 -1 12 -1.07421875 9.08203125 C-0.94660156 8.00308594 -0.81898438 6.92414062 -0.6875 5.8125 C-0.56761719 4.72582031 -0.44773438 3.63914062 -0.32421875 2.51953125 C-0.21722656 1.68808594 -0.11023438 0.85664062 0 0 Z " fill="#213529" transform="translate(190,626)"/>
<path d="M0 0 C0.66 0 1.32 0 2 0 C3.19422823 1.45961229 4.38603377 2.92136194 5.55859375 4.3984375 C7.74369728 6.82633031 10.21389761 8.31537995 13 10 C11.296875 10.734375 11.296875 10.734375 9 11 C6.640625 9.453125 6.640625 9.453125 4.25 7.25 C3.45078125 6.53328125 2.6515625 5.8165625 1.828125 5.078125 C0 3 0 3 0 0 Z " fill="#1C3025" transform="translate(824,547)"/>
<path d="M0 0 C0.33 0 0.66 0 1 0 C2.40333568 5.76926889 1.67296616 11.18143105 1 17 C0.34 16.67 -0.32 16.34 -1 16 C-1.02692484 13.70839681 -1.04636124 11.41670454 -1.0625 9.125 C-1.07410156 7.84882812 -1.08570313 6.57265625 -1.09765625 5.2578125 C-1 2 -1 2 0 0 Z " fill="#112A20" transform="translate(402,520)"/>
<path d="M0 0 C4.18423892 3.50897269 8.19588166 7.08060535 12 11 C7.92699831 11 6.22063289 9.41547466 3 7 C0.58363706 4.34200077 0 3.64705667 0 0 Z " fill="#1D3228" transform="translate(743,548)"/>
<path d="M0 0 C5.02705917 0.12047418 8.09872551 0.24587237 12.0625 3.5625 C12.701875 4.366875 13.34125 5.17125 14 6 C12.22604492 5.57533503 10.45589369 5.1347591 8.6875 4.6875 C7.70136719 4.44386719 6.71523438 4.20023437 5.69921875 3.94921875 C2.99858988 2.99950411 1.79043784 2.18152323 0 0 Z " fill="#1A3125" transform="translate(491,501)"/>
<path d="M0 0 C0.77601563 0.00386719 1.55203125 0.00773437 2.3515625 0.01171875 C4.375 0.3125 4.375 0.3125 6.375 2.3125 C1.425 2.6425 -3.525 2.9725 -8.625 3.3125 C-4.08978873 -0.08890845 -4.08978873 -0.08890845 0 0 Z " fill="#162F23" transform="translate(771.625,500.6875)"/>
<path d="M0 0 C0.33 0 0.66 0 1 0 C1 4.29 1 8.58 1 13 C0.34 13 -0.32 13 -1 13 C-1.33 13.66 -1.66 14.32 -2 15 C-2 11.7 -2 8.4 -2 5 C-1.67 5 -1.34 5 -1 5 C-0.67 3.35 -0.34 1.7 0 0 Z " fill="#2D4B3D" transform="translate(638,544)"/>
<path d="M0 0 C0 0.66 0 1.32 0 2 C-5.37625234 2.84888195 -9.65370398 3.0024305 -15 2 C-15 1.67 -15 1.34 -15 1 C-10.03926578 -0.32286246 -5.08888488 -0.08893197 0 0 Z " fill="#17312A" transform="translate(216,640)"/>
<path d="M0 0 C-8.07744875 5.74031891 -8.07744875 5.74031891 -14 5 C-11.75043698 2.75043698 -9.93676737 1.99489035 -7 0.8125 C-6.113125 0.44769531 -5.22625 0.08289063 -4.3125 -0.29296875 C-2 -1 -2 -1 0 0 Z " fill="#1C2F25" transform="translate(306,560)"/>
<path d="M0 0 C0.33 0.66 0.66 1.32 1 2 C-3.40914783 3.10228696 -7.48382401 3.07654536 -12 3 C-8.40198016 -0.59801984 -4.84291279 -0.09137571 0 0 Z " fill="#162E23" transform="translate(857,500)"/>
<path d="M0 0 C4.7517398 0.43197635 6.92000054 1.32769295 10 5 C9.67 5.99 9.34 6.98 9 8 C2.57142857 2.71428571 2.57142857 2.71428571 0 0 Z " fill="#1D372A" transform="translate(777,490)"/>
<path d="M0 0 C3.43970626 1.14656875 3.8782229 1.84518278 5.75 4.8125 C6.19859375 5.49957031 6.6471875 6.18664062 7.109375 6.89453125 C8.16892656 9.39934831 7.92399724 10.49281235 7 13 C5.82786955 11.21190303 4.66244474 9.41940875 3.5 7.625 C2.8503125 6.62726563 2.200625 5.62953125 1.53125 4.6015625 C0 2 0 2 0 0 Z " fill="#15291E" transform="translate(320,438)"/>
<path d="M0 0 C0.66 0 1.32 0 2 0 C3.32421875 1.64453125 3.32421875 1.64453125 4.6875 3.8125 C5.14511719 4.52019531 5.60273437 5.22789062 6.07421875 5.95703125 C7 8 7 8 6 11 C4.99126984 9.73608512 3.99328178 8.46359117 3 7.1875 C2.443125 6.47980469 1.88625 5.77210938 1.3125 5.04296875 C0 3 0 3 0 0 Z " fill="#193024" transform="translate(553,533)"/>
<path d="M0 0 C0.99 0.495 0.99 0.495 2 1 C3.5157861 6.37415073 2.69927585 11.55640643 2 17 C1.67 17 1.34 17 1 17 C0.67 11.39 0.34 5.78 0 0 Z " fill="#2B4337" transform="translate(587,513)"/>
<path d="M0 0 C0 3.58912412 -0.66436554 4.10857029 -3 6.6875 C-3.556875 7.31011719 -4.11375 7.93273437 -4.6875 8.57421875 C-5.120625 9.04472656 -5.55375 9.51523437 -6 10 C-6.33 9.01 -6.66 8.02 -7 7 C-2.88888889 1.44444444 -2.88888889 1.44444444 0 0 Z " fill="#1A2F22" transform="translate(212,590)"/>
<path d="M0 0 C0.99 0.33 1.98 0.66 3 1 C0.69 3.97 -1.62 6.94 -4 10 C-4.33 9.01 -4.66 8.02 -5 7 C-4.00390625 5.17578125 -4.00390625 5.17578125 -2.5625 3.3125 C-2.08941406 2.68988281 -1.61632812 2.06726563 -1.12890625 1.42578125 C-0.75636719 0.95527344 -0.38382813 0.48476563 0 0 Z " fill="#1C3227" transform="translate(222,576)"/>
<path d="M0 0 C0.33 0 0.66 0 1 0 C0.64989059 8.19256018 0.64989059 8.19256018 -2.0625 11.5625 C-2.701875 12.036875 -3.34125 12.51125 -4 13 C-4 9.70342144 -3.25666731 7.83635572 -2 4.8125 C-1.62875 3.91144531 -1.2575 3.01039063 -0.875 2.08203125 C-0.441875 1.05142578 -0.441875 1.05142578 0 0 Z " fill="#162A20" transform="translate(604,534)"/>
<path d="M0 0 C3.09998746 0.33214151 4.0545012 1.0545012 6.3125 3.3125 C8 6 8 6 7.60546875 8.16796875 C7.40566406 8.77253906 7.20585938 9.37710937 7 10 C6.01886757 8.70982586 5.04015801 7.41780894 4.0625 6.125 C3.24458984 5.04605469 3.24458984 5.04605469 2.41015625 3.9453125 C1 2 1 2 0 0 Z " fill="#192C22" transform="translate(515,496)"/>
<path d="M0 0 C0.66 0 1.32 0 2 0 C2.20496094 0.55429687 2.40992188 1.10859375 2.62109375 1.6796875 C2.89050781 2.40414063 3.15992188 3.12859375 3.4375 3.875 C3.70433594 4.59429687 3.97117187 5.31359375 4.24609375 6.0546875 C4.97916854 8.03648845 4.97916854 8.03648845 6 10 C4.125 9.8125 4.125 9.8125 2 9 C0.21715186 5.70173093 0 3.8225249 0 0 Z " fill="#21382D" transform="translate(703,469)"/>
<path d="M0 0 C0.99 0.33 1.98 0.66 3 1 C0.36 3.97 -2.28 6.94 -5 10 C-5.33 9.01 -5.66 8.02 -6 7 C-4.78515625 5.17578125 -4.78515625 5.17578125 -3.0625 3.3125 C-2.49660156 2.68988281 -1.93070313 2.06726563 -1.34765625 1.42578125 C-0.90292969 0.95527344 -0.45820313 0.48476563 0 0 Z " fill="#182D21" transform="translate(203,413)"/>
<path d="M0 0 C2.475 0.495 2.475 0.495 5 1 C5 1.66 5 2.32 5 3 C5.639375 3.2475 6.27875 3.495 6.9375 3.75 C9 5 9 5 9.62890625 7.078125 C9.81259766 8.02945312 9.81259766 8.02945312 10 9 C8.8944811 8.06409496 7.79064547 7.12620142 6.6875 6.1875 C6.07261719 5.66542969 5.45773437 5.14335937 4.82421875 4.60546875 C3.14575321 3.12827531 1.56117966 1.59960869 0 0 Z " fill="#1D3126" transform="translate(272,386)"/>
<path d="M0 0 C0 0.66 0 1.32 0 2 C-1.28650706 2.69710731 -2.57940665 3.38242876 -3.875 4.0625 C-4.95394531 4.63677734 -4.95394531 4.63677734 -6.0546875 5.22265625 C-6.69664062 5.47917969 -7.33859375 5.73570312 -8 6 C-8.66 5.67 -9.32 5.34 -10 5 C-5.16129032 0 -5.16129032 0 0 0 Z " fill="#193025" transform="translate(481,490)"/>
<path d="M0 0 C3.09592835 3.5087188 4.74194623 6.49197399 6 11 C3 10 3 10 1.3125 7.1875 C0 4 0 4 0 0 Z " fill="#1F3529" transform="translate(328,449)"/>
<path d="M0 0 C1 3 1 3 -0.4375 6.1875 C-1.2109375 7.5796875 -1.2109375 7.5796875 -2 9 C-2.66 9 -3.32 9 -4 9 C-4.33 9.99 -4.66 10.98 -5 12 C-5.58305225 8.15185513 -4.7002883 6.23691365 -2.5 3.1875 C-1.67780256 2.11635945 -0.84795951 1.0508641 0 0 Z " fill="#162E22" transform="translate(840,505)"/>
<path d="M0 0 C0 4.24645065 -1.81750806 6.38524772 -4 10 C-4.5534764 7.92446352 -5 6.15634036 -5 4 C-3.37373596 2.61767557 -1.7074998 1.28062485 0 0 Z " fill="#1B2E24" transform="translate(181,444)"/>
<path d="M0 0 C-1.40424009 2.80848017 -3.10864198 2.92414585 -6 4 C-7.34050052 4.65213539 -8.67661368 5.31379969 -10 6 C-6.57724958 0.25466893 -6.57724958 0.25466893 -3.875 -0.9375 C-2 -1 -2 -1 0 0 Z " fill="#152B21" transform="translate(254,371)"/>
<path d="M0 0 C3.81684226 1.55500981 6.19195732 4.03595495 9 7 C8.67 7.66 8.34 8.32 8 9 C6.84775972 8.07038578 5.70340824 7.1309875 4.5625 6.1875 C3.60537109 5.40439453 3.60537109 5.40439453 2.62890625 4.60546875 C1 3 1 3 0 0 Z " fill="#162A20" transform="translate(578,503)"/>
<path d="M0 0 C0.33 0.66 0.66 1.32 1 2 C0.34 2 -0.32 2 -1 2 C-1.4021875 3.1446875 -1.4021875 3.1446875 -1.8125 4.3125 C-2.94424112 6.87380884 -3.91223401 8.19692938 -6 10 C-5.58578031 5.16743695 -3.53586014 3.17320782 0 0 Z " fill="#162A20" transform="translate(468,498)"/>
<path d="M0 0 C0.99 0.33 1.98 0.66 3 1 C-0.465 3.97 -0.465 3.97 -4 7 C-4.66 6.67 -5.32 6.34 -6 6 C-2.25 1.125 -2.25 1.125 0 0 Z " fill="#162C21" transform="translate(240,378)"/>
<path d="M0 0 C1.65 0.33 3.3 0.66 5 1 C4.67 2.32 4.34 3.64 4 5 C2.125 5.625 2.125 5.625 0 6 C-0.66 5.34 -1.32 4.68 -2 4 C-0.68 4 0.64 4 2 4 C2 3.01 2 2.02 2 1 C1.34 0.67 0.68 0.34 0 0 Z " fill="#304234" transform="translate(288,637)"/>
<path d="M0 0 C0.75 1.6875 0.75 1.6875 1 4 C-0.9375 6.75 -0.9375 6.75 -3 9 C-3.99 8.67 -4.98 8.34 -6 8 C-5.38125 7.236875 -4.7625 6.47375 -4.125 5.6875 C-1.94402948 3.00374191 -1.94402948 3.00374191 0 0 Z " fill="#182A21" transform="translate(880,545)"/>
<path d="M0 0 C0.33 0.99 0.66 1.98 1 3 C1.66 3 2.32 3 3 3 C3 4.98 3 6.96 3 9 C2.01 8.67 1.02 8.34 0 8 C0 5.36 0 2.72 0 0 Z " fill="#1D3428" transform="translate(523,507)"/>
<path d="M0 0 C0.99 0.33 1.98 0.66 3 1 C2.0479279 2.00596297 1.08812654 3.00461563 0.125 4 C-0.40867188 4.556875 -0.94234375 5.11375 -1.4921875 5.6875 C-3 7 -3 7 -5 7 C-3.70700306 4.11562221 -2.34058637 2.12780579 0 0 Z " fill="#172C21" transform="translate(229,387)"/>
<path d="M0 0 C-1 3 -1 3 -2.8125 4.25 C-5.33943414 5.11637742 -6.52221994 4.88492145 -9 4 C-2.25 0 -2.25 0 0 0 Z " fill="#182E22" transform="translate(513,555)"/>
<path d="M0 0 C1 4 1 4 -0.4375 6.75 C-1.2109375 7.86375 -1.2109375 7.86375 -2 9 C-2.99 8.67 -3.98 8.34 -5 8 C-3.35 5.36 -1.7 2.72 0 0 Z " fill="#182D22" transform="translate(522,542)"/>
<path d="M0 0 C0.33 0 0.66 0 1 0 C1.33 3.96 1.66 7.92 2 12 C1.01 12 0.02 12 -1 12 C-0.67 8.04 -0.34 4.08 0 0 Z " fill="#2E463A" transform="translate(671,490)"/>
<path d="M0 0 C3.35595828 0.59927826 5.37801226 1.84622436 8 4 C7.67 4.99 7.34 5.98 7 7 C5.83040013 6.02433888 4.66438823 5.044375 3.5 4.0625 C2.8503125 3.51722656 2.200625 2.97195313 1.53125 2.41015625 C1.0259375 1.94480469 0.520625 1.47945313 0 1 C0 0.67 0 0.34 0 0 Z " fill="#172A20" transform="translate(256,372)"/>
<path d="M0 0 C0.66 0 1.32 0 2 0 C2.33 1.98 2.66 3.96 3 6 C2.34 6 1.68 6 1 6 C0.67 6.99 0.34 7.98 0 9 C0 6.03 0 3.06 0 0 Z " fill="#142E22" transform="translate(636,499)"/>
<path d="M0 0 C2.25 0.25 2.25 0.25 4 1 C2.02 2.32 0.04 3.64 -2 5 C-2.66 4.67 -3.32 4.34 -4 4 C-2.25 1.9375 -2.25 1.9375 0 0 Z " fill="#193124" transform="translate(753,490)"/>
<path d="M0 0 C0.99 1.485 0.99 1.485 2 3 C1.34 3 0.68 3 0 3 C0 2.01 0 1.02 0 0 Z " fill="#365547" transform="translate(865,512)"/>
<path d="" fill="#375547" transform="translate(0,0)"/>
<path d="M0 0 C0.66 0.66 1.32 1.32 2 2 C1.34 2 0.68 2 0 2 C0 1.34 0 0.68 0 0 Z " fill="#395749" transform="translate(737,545)"/>
<path d="M0 0 C0.66 0 1.32 0 2 0 C1.67 0.66 1.34 1.32 1 2 C0.67 1.34 0.34 0.68 0 0 Z " fill="#365548" transform="translate(757,535)"/>
<path d="" fill="#385648" transform="translate(0,0)"/>
<path d="" fill="#405E50" transform="translate(0,0)"/>
<path d="M0 0 C2 1 2 1 2 1 Z " fill="#3F584B" transform="translate(850,564)"/>
<path d="M0 0 C2 1 2 1 2 1 Z " fill="#3C554B" transform="translate(842,563)"/>
<path d="" fill="#375649" transform="translate(0,0)"/>
<path d="M0 0 C2 1 2 1 2 1 Z " fill="#3A564C" transform="translate(176,545)"/>
<path d="M0 0 C2 1 2 1 2 1 Z " fill="#355245" transform="translate(772,544)"/>
<path d="M0 0 C2 1 2 1 2 1 Z " fill="#365346" transform="translate(569,544)"/>
<path d="" fill="#375547" transform="translate(0,0)"/>
<path d="" fill="#365447" transform="translate(0,0)"/>
<path d="" fill="#37544A" transform="translate(0,0)"/>
<path d="M0 0 C2 1 2 1 2 1 Z " fill="#365045" transform="translate(873,537)"/>
<path d="" fill="#375449" transform="translate(0,0)"/>
<path d="" fill="#3C5B4D" transform="translate(0,0)"/>
<path d="" fill="#365749" transform="translate(0,0)"/>
<path d="M0 0 C2 1 2 1 2 1 Z " fill="#385547" transform="translate(648,526)"/>
<path d="" fill="#385749" transform="translate(0,0)"/>
<path d="" fill="#3A584A" transform="translate(0,0)"/>
<path d="M0 0 C2 1 2 1 2 1 Z " fill="#35564A" transform="translate(504,518)"/>
<path d="" fill="#3B5C4D" transform="translate(0,0)"/>
<path d="" fill="#3E5E4E" transform="translate(0,0)"/>
<path d="M0 0 C2 1 2 1 2 1 Z " fill="#375649" transform="translate(752,488)"/>
<path d="M0 0 C2 1 2 1 2 1 Z " fill="#37564B" transform="translate(553,488)"/>
<path d="" fill="#3B5A4A" transform="translate(0,0)"/>
<path d="M0 0 C2 1 2 1 2 1 Z " fill="#3C5C4E" transform="translate(784,466)"/>
<path d="" fill="#494E4A" transform="translate(0,0)"/>
<path d="" fill="#CCA868" transform="translate(0,0)"/>
<path d="" fill="#AA9463" transform="translate(0,0)"/>
<path d="" fill="#CBA764" transform="translate(0,0)"/>
<path d="" fill="#6F745A" transform="translate(0,0)"/>
<path d="" fill="#8A845E" transform="translate(0,0)"/>
<path d="" fill="#666E5D" transform="translate(0,0)"/>
<path d="" fill="#495E4B" transform="translate(0,0)"/>
<path d="" fill="#4C5F50" transform="translate(0,0)"/>
<path d="" fill="#4B5E4B" transform="translate(0,0)"/>
<path d="" fill="#486150" transform="translate(0,0)"/>
<path d="" fill="#485F4F" transform="translate(0,0)"/>
<path d="" fill="#455C4E" transform="translate(0,0)"/>
<path d="" fill="#465C4F" transform="translate(0,0)"/>
<path d="" fill="#3A5547" transform="translate(0,0)"/>
<path d="" fill="#3C5648" transform="translate(0,0)"/>
<path d="" fill="#3B574A" transform="translate(0,0)"/>
<path d="" fill="#3D5849" transform="translate(0,0)"/>
<path d="" fill="#3B5749" transform="translate(0,0)"/>
<path d="" fill="#3A5749" transform="translate(0,0)"/>
<path d="" fill="#3F594D" transform="translate(0,0)"/>
<path d="" fill="#3C574B" transform="translate(0,0)"/>
<path d="" fill="#3B5549" transform="translate(0,0)"/>
<path d="" fill="#3B5649" transform="translate(0,0)"/>
<path d="" fill="#3D574A" transform="translate(0,0)"/>
<path d="" fill="#41584C" transform="translate(0,0)"/>
<path d="" fill="#3E5A4A" transform="translate(0,0)"/>
<path d="" fill="#405A4D" transform="translate(0,0)"/>
<path d="" fill="#3D5749" transform="translate(0,0)"/>
<path d="" fill="#3D5447" transform="translate(0,0)"/>
<path d="" fill="#3E574B" transform="translate(0,0)"/>
<path d="" fill="#3E5649" transform="translate(0,0)"/>
<path d="" fill="#415A4C" transform="translate(0,0)"/>
<path d="" fill="#365146" transform="translate(0,0)"/>
<path d="" fill="#3E574C" transform="translate(0,0)"/>
<path d="" fill="#3A5548" transform="translate(0,0)"/>
<path d="" fill="#3C594C" transform="translate(0,0)"/>
<path d="" fill="#365548" transform="translate(0,0)"/>
<path d="" fill="#3C5B4D" transform="translate(0,0)"/>
<path d="" fill="#39574A" transform="translate(0,0)"/>
<path d="" fill="#395548" transform="translate(0,0)"/>
<path d="" fill="#385748" transform="translate(0,0)"/>
<path d="" fill="#3C584B" transform="translate(0,0)"/>
<path d="" fill="#395748" transform="translate(0,0)"/>
<path d="" fill="#375446" transform="translate(0,0)"/>
<path d="" fill="#3A5248" transform="translate(0,0)"/>
<path d="" fill="#395549" transform="translate(0,0)"/>
<path d="" fill="#375649" transform="translate(0,0)"/>
<path d="" fill="#3A564A" transform="translate(0,0)"/>
<path d="" fill="#3B554C" transform="translate(0,0)"/>
<path d="" fill="#3C544B" transform="translate(0,0)"/>
<path d="" fill="#38534A" transform="translate(0,0)"/>
<path d="" fill="#3C5A4D" transform="translate(0,0)"/>
<path d="" fill="#3A544B" transform="translate(0,0)"/>
<path d="" fill="#3D594C" transform="translate(0,0)"/>
<path d="" fill="#39594C" transform="translate(0,0)"/>
<path d="" fill="#39564B" transform="translate(0,0)"/>
<path d="" fill="#385446" transform="translate(0,0)"/>
<path d="" fill="#3B584B" transform="translate(0,0)"/>
<path d="" fill="#3D5A4D" transform="translate(0,0)"/>
<path d="" fill="#375848" transform="translate(0,0)"/>
<path d="" fill="#3C5249" transform="translate(0,0)"/>
<path d="" fill="#3A584B" transform="translate(0,0)"/>
<path d="" fill="#375446" transform="translate(0,0)"/>
<path d="" fill="#365344" transform="translate(0,0)"/>
<path d="" fill="#3A5448" transform="translate(0,0)"/>
<path d="" fill="#3D574C" transform="translate(0,0)"/>
<path d="" fill="#365348" transform="translate(0,0)"/>
<path d="" fill="#3B5A4C" transform="translate(0,0)"/>
<path d="" fill="#345346" transform="translate(0,0)"/>
<path d="" fill="#375449" transform="translate(0,0)"/>
<path d="" fill="#355545" transform="translate(0,0)"/>
<path d="" fill="#3D594C" transform="translate(0,0)"/>
<path d="" fill="#365547" transform="translate(0,0)"/>
<path d="" fill="#385649" transform="translate(0,0)"/>
<path d="" fill="#355449" transform="translate(0,0)"/>
<path d="" fill="#375447" transform="translate(0,0)"/>
<path d="" fill="#3A5547" transform="translate(0,0)"/>
<path d="" fill="#3A5649" transform="translate(0,0)"/>
<path d="" fill="#375447" transform="translate(0,0)"/>
<path d="" fill="#324E42" transform="translate(0,0)"/>
<path d="" fill="#365549" transform="translate(0,0)"/>
<path d="" fill="#375548" transform="translate(0,0)"/>
<path d="" fill="#3B594D" transform="translate(0,0)"/>
<path d="" fill="#3C5950" transform="translate(0,0)"/>
<path d="" fill="#3B574A" transform="translate(0,0)"/>
<path d="" fill="#3A5549" transform="translate(0,0)"/>
<path d="" fill="#364F43" transform="translate(0,0)"/>
<path d="" fill="#3A584C" transform="translate(0,0)"/>
<path d="" fill="#3C574C" transform="translate(0,0)"/>
<path d="" fill="#39584A" transform="translate(0,0)"/>
<path d="" fill="#335447" transform="translate(0,0)"/>
<path d="" fill="#3E594C" transform="translate(0,0)"/>
<path d="" fill="#375749" transform="translate(0,0)"/>
<path d="" fill="#355042" transform="translate(0,0)"/>
<path d="" fill="#3B5349" transform="translate(0,0)"/>
<path d="" fill="#395949" transform="translate(0,0)"/>
<path d="" fill="#325446" transform="translate(0,0)"/>
<path d="" fill="#365243" transform="translate(0,0)"/>
<path d="" fill="#3A5A46" transform="translate(0,0)"/>
<path d="" fill="#365645" transform="translate(0,0)"/>
<path d="" fill="#395849" transform="translate(0,0)"/>
<path d="" fill="#385647" transform="translate(0,0)"/>
<path d="" fill="#3B5248" transform="translate(0,0)"/>
<path d="" fill="#37574C" transform="translate(0,0)"/>
<path d="" fill="#355448" transform="translate(0,0)"/>
<path d="" fill="#385346" transform="translate(0,0)"/>
<path d="" fill="#385345" transform="translate(0,0)"/>
<path d="" fill="#385549" transform="translate(0,0)"/>
<path d="" fill="#385A4A" transform="translate(0,0)"/>
<path d="" fill="#3B5A4B" transform="translate(0,0)"/>
<path d="" fill="#37584B" transform="translate(0,0)"/>
<path d="" fill="#3A5549" transform="translate(0,0)"/>
<path d="" fill="#375446" transform="translate(0,0)"/>
<path d="" fill="#3B574D" transform="translate(0,0)"/>
<path d="" fill="#385143" transform="translate(0,0)"/>
<path d="" fill="#395649" transform="translate(0,0)"/>
<path d="" fill="#395548" transform="translate(0,0)"/>
<path d="" fill="#385446" transform="translate(0,0)"/>
<path d="" fill="#375348" transform="translate(0,0)"/>
<path d="" fill="#365748" transform="translate(0,0)"/>
<path d="" fill="#375244" transform="translate(0,0)"/>
<path d="" fill="#3B584B" transform="translate(0,0)"/>
<path d="" fill="#3B594B" transform="translate(0,0)"/>
<path d="" fill="#395549" transform="translate(0,0)"/>
<path d="" fill="#37574A" transform="translate(0,0)"/>
<path d="" fill="#375447" transform="translate(0,0)"/>
<path d="" fill="#375347" transform="translate(0,0)"/>
<path d="" fill="#39584B" transform="translate(0,0)"/>
<path d="" fill="#375649" transform="translate(0,0)"/>
<path d="" fill="#3B594B" transform="translate(0,0)"/>
<path d="" fill="#355448" transform="translate(0,0)"/>
<path d="" fill="#3C584D" transform="translate(0,0)"/>
<path d="" fill="#39584C" transform="translate(0,0)"/>
<path d="" fill="#3C5449" transform="translate(0,0)"/>
<path d="" fill="#385546" transform="translate(0,0)"/>
<path d="" fill="#375443" transform="translate(0,0)"/>
<path d="" fill="#385749" transform="translate(0,0)"/>
<path d="" fill="#385849" transform="translate(0,0)"/>
<path d="" fill="#355144" transform="translate(0,0)"/>
<path d="" fill="#36534A" transform="translate(0,0)"/>
<path d="" fill="#355348" transform="translate(0,0)"/>
<path d="" fill="#395749" transform="translate(0,0)"/>
<path d="" fill="#375648" transform="translate(0,0)"/>
<path d="" fill="#395849" transform="translate(0,0)"/>
<path d="" fill="#385848" transform="translate(0,0)"/>
<path d="" fill="#375749" transform="translate(0,0)"/>
<path d="" fill="#39554B" transform="translate(0,0)"/>
<path d="" fill="#335244" transform="translate(0,0)"/>
<path d="" fill="#36554A" transform="translate(0,0)"/>
<path d="" fill="#3C5B4C" transform="translate(0,0)"/>
<path d="" fill="#385647" transform="translate(0,0)"/>
<path d="" fill="#3B564B" transform="translate(0,0)"/>
<path d="" fill="#375749" transform="translate(0,0)"/>
<path d="" fill="#375548" transform="translate(0,0)"/>
<path d="" fill="#3A5B4D" transform="translate(0,0)"/>
<path d="" fill="#3D5C4C" transform="translate(0,0)"/>
<path d="" fill="#3A5448" transform="translate(0,0)"/>
<path d="" fill="#3B5C4D" transform="translate(0,0)"/>
<path d="" fill="#395649" transform="translate(0,0)"/>
<path d="" fill="#385648" transform="translate(0,0)"/>
<path d="" fill="#365648" transform="translate(0,0)"/>
<path d="" fill="#39564A" transform="translate(0,0)"/>
<path d="" fill="#385647" transform="translate(0,0)"/>
<path d="" fill="#3C584C" transform="translate(0,0)"/>
<path d="" fill="#3A594E" transform="translate(0,0)"/>
<path d="" fill="#375648" transform="translate(0,0)"/>
<path d="" fill="#3A5A4A" transform="translate(0,0)"/>
<path d="" fill="#3A5849" transform="translate(0,0)"/>
<path d="" fill="#375848" transform="translate(0,0)"/>
<path d="" fill="#3A5449" transform="translate(0,0)"/>
<path d="" fill="#3C5A4C" transform="translate(0,0)"/>
<path d="" fill="#3C5C4D" transform="translate(0,0)"/>
<path d="" fill="#36544A" transform="translate(0,0)"/>
<path d="" fill="#355245" transform="translate(0,0)"/>
<path d="" fill="#37564A" transform="translate(0,0)"/>
<path d="" fill="#365749" transform="translate(0,0)"/>
<path d="" fill="#345247" transform="translate(0,0)"/>
<path d="" fill="#36584A" transform="translate(0,0)"/>
<path d="" fill="#3B5C4E" transform="translate(0,0)"/>
<path d="" fill="#3E5A4C" transform="translate(0,0)"/>
<path d="" fill="#355446" transform="translate(0,0)"/>
<path d="" fill="#345847" transform="translate(0,0)"/>
<path d="" fill="#3C584D" transform="translate(0,0)"/>
<path d="" fill="#395B4D" transform="translate(0,0)"/>
<path d="" fill="#345548" transform="translate(0,0)"/>
<path d="" fill="#3C5E4E" transform="translate(0,0)"/>
<path d="" fill="#375545" transform="translate(0,0)"/>
<path d="" fill="#3A5849" transform="translate(0,0)"/>
<path d="" fill="#385547" transform="translate(0,0)"/>
<path d="" fill="#3B574A" transform="translate(0,0)"/>
<path d="" fill="#395847" transform="translate(0,0)"/>
<path d="" fill="#3F5F50" transform="translate(0,0)"/>
<path d="" fill="#3B5B4C" transform="translate(0,0)"/>
<path d="" fill="#3B584A" transform="translate(0,0)"/>
<path d="" fill="#365548" transform="translate(0,0)"/>
<path d="" fill="#365446" transform="translate(0,0)"/>
<path d="" fill="#3B594D" transform="translate(0,0)"/>
<path d="" fill="#3B594B" transform="translate(0,0)"/>
<path d="" fill="#3E6052" transform="translate(0,0)"/>
<path d="" fill="#425B4F" transform="translate(0,0)"/>
<path d="" fill="#405E55" transform="translate(0,0)"/>
<path d="" fill="#415C51" transform="translate(0,0)"/>
<path d="" fill="#425F51" transform="translate(0,0)"/>
<path d="" fill="#3D5B4D" transform="translate(0,0)"/>
<path d="" fill="#405A4E" transform="translate(0,0)"/>
<path d="" fill="#3C5B4E" transform="translate(0,0)"/>
<path d="" fill="#415E53" transform="translate(0,0)"/>
<path d="" fill="#3A5849" transform="translate(0,0)"/>
<path d="" fill="#395B4B" transform="translate(0,0)"/>
<path d="" fill="#3C584C" transform="translate(0,0)"/>
<path d="" fill="#3A594A" transform="translate(0,0)"/>
<path d="" fill="#365549" transform="translate(0,0)"/>
<path d="" fill="#385648" transform="translate(0,0)"/>
<path d="" fill="#375546" transform="translate(0,0)"/>
<path d="" fill="#355449" transform="translate(0,0)"/>
<path d="" fill="#39594B" transform="translate(0,0)"/>
<path d="" fill="#385347" transform="translate(0,0)"/>
<path d="" fill="#37574C" transform="translate(0,0)"/>
<path d="" fill="#3A5749" transform="translate(0,0)"/>
<path d="" fill="#3A584B" transform="translate(0,0)"/>
<path d="" fill="#3D5749" transform="translate(0,0)"/>
<path d="" fill="#3C5548" transform="translate(0,0)"/>
<path d="" fill="#3C594C" transform="translate(0,0)"/>
<path d="" fill="#3D564C" transform="translate(0,0)"/>
<path d="" fill="#3C574A" transform="translate(0,0)"/>
<path d="" fill="#3C584C" transform="translate(0,0)"/>
</svg>
